<?xml version="1.0" standalone="no"?>
<!DOCTYPE svg PUBLIC "-//W3C//DTD SVG 20010904//EN"
 "http://www.w3.org/TR/2001/REC-SVG-20010904/DTD/svg10.dtd">
<svg version="1.0" xmlns="http://www.w3.org/2000/svg"
 width="2948.000000pt" height="2948.000000pt" viewBox="0 0 2948.000000 2948.000000"
 preserveAspectRatio="xMidYMid meet">
<metadata>
Created by potrace 1.11, written by Peter Selinger 2001-2013
</metadata>
<g transform="translate(0.000000,2948.000000) scale(0.100000,-0.100000)"
fill="#000000" stroke="none">
<path d="M14198 29474 c-2 -1 -82 -5 -178 -8 -96 -4 -200 -8 -230 -10 -30 -3
-98 -7 -150 -11 -91 -5 -131 -8 -250 -20 -30 -2 -82 -7 -115 -10 -129 -11
-211 -20 -295 -30 -19 -3 -55 -7 -80 -10 -52 -6 -333 -44 -370 -50 -206 -33
-425 -70 -505 -86 -55 -11 -113 -22 -130 -25 -16 -3 -48 -9 -70 -14 -22 -5
-56 -12 -75 -15 -19 -3 -55 -11 -80 -16 -72 -17 -83 -19 -125 -28 -22 -5 -101
-23 -175 -41 -74 -18 -139 -33 -145 -34 -5 -1 -19 -5 -30 -9 -11 -3 -31 -8
-45 -11 -44 -9 -241 -63 -390 -106 -80 -23 -158 -46 -175 -50 -98 -24 -818
-268 -910 -309 -11 -5 -69 -28 -130 -51 -132 -50 -426 -171 -510 -210 -33 -15
-70 -30 -83 -34 -24 -8 -21 -14 452 -938 l90 -177 36 16 c19 8 51 22 70 31 19
9 37 16 40 17 3 1 16 7 30 12 99 43 372 151 505 201 150 56 597 209 634 217 9
2 54 16 101 30 297 92 801 222 1069 275 25 5 57 12 71 15 25 5 168 33 205 40
18 3 75 13 168 29 15 3 35 7 45 10 9 2 40 7 67 11 28 3 88 12 135 20 47 8 101
16 120 19 19 2 87 11 150 20 63 8 138 18 165 20 28 3 88 10 135 15 47 6 119
13 160 17 41 3 89 8 105 9 17 2 74 6 128 10 54 4 117 8 140 10 459 38 1296 32
1807 -11 36 -3 90 -7 120 -9 30 -3 76 -7 103 -10 56 -6 122 -13 197 -20 64 -7
95 -10 210 -26 47 -6 101 -13 120 -15 19 -2 46 -6 60 -8 14 -3 45 -8 70 -11
25 -3 56 -8 70 -10 14 -3 39 -7 55 -9 17 -3 73 -12 125 -21 52 -9 106 -18 120
-20 62 -9 251 -47 425 -85 105 -22 201 -43 215 -46 71 -15 472 -118 590 -153
265 -77 317 -93 485 -148 159 -52 505 -173 550 -192 11 -5 45 -19 75 -31 30
-11 64 -25 75 -30 11 -4 63 -25 115 -45 52 -21 150 -62 218 -91 68 -30 125
-54 128 -54 3 0 455 908 526 1058 12 25 17 47 12 52 -24 24 -567 244 -899 365
-333 121 -923 307 -1141 360 -10 3 -126 32 -257 64 -131 33 -250 62 -265 65
-15 2 -70 14 -122 26 -88 20 -319 67 -365 75 -11 2 -60 11 -110 20 -49 9 -101
18 -115 21 -129 23 -565 87 -675 99 -27 3 -90 10 -140 16 -49 6 -108 12 -130
14 -148 13 -183 17 -205 20 -14 2 -70 7 -125 10 -55 4 -116 8 -135 10 -19 2
-89 6 -155 10 -66 3 -158 8 -205 11 -88 6 -998 13 -1002 8z"/>
<path d="M14256 27002 c-2 -1 -61 -4 -132 -7 -175 -7 -290 -13 -371 -20 -77
-7 -137 -12 -238 -20 -38 -3 -86 -8 -105 -10 -19 -3 -60 -7 -90 -10 -30 -3
-73 -8 -95 -10 -22 -3 -60 -8 -85 -11 -25 -3 -56 -7 -70 -9 -14 -3 -47 -7 -75
-11 -27 -3 -153 -23 -280 -44 -703 -119 -1273 -266 -1935 -498 -197 -69 -699
-267 -713 -281 -5 -5 53 -129 128 -277 76 -148 193 -377 260 -509 67 -132 196
-384 285 -560 89 -176 215 -423 280 -550 65 -126 179 -351 255 -500 170 -334
355 -697 535 -1050 76 -148 197 -387 270 -530 73 -143 188 -368 255 -500 67
-132 189 -370 270 -530 81 -159 211 -414 288 -565 76 -151 192 -378 257 -505
65 -126 184 -360 265 -520 81 -159 203 -398 270 -530 67 -132 187 -366 265
-520 211 -414 387 -760 528 -1035 139 -272 129 -253 169 -332 15 -32 30 -58
33 -58 3 1 49 89 102 198 53 108 228 463 389 787 160 325 371 752 469 950 247
501 601 1218 1310 2650 128 259 317 641 420 850 103 209 290 587 415 840 125
253 312 631 415 840 103 209 306 619 450 910 436 882 499 1009 502 1023 2 8
-19 22 -52 36 -30 12 -71 30 -90 38 -94 43 -374 150 -600 231 -416 148 -917
292 -1335 383 -38 9 -77 17 -85 19 -130 30 -652 122 -800 140 -30 4 -63 9 -72
10 -9 2 -44 6 -77 10 -33 3 -68 7 -78 9 -10 2 -50 7 -88 11 -37 3 -82 8 -99
10 -44 6 -130 14 -211 20 -38 3 -99 7 -135 10 -259 20 -486 28 -848 29 -178 1
-325 0 -326 -2z"/>
<path d="M7104 25547 c-93 -63 -189 -128 -214 -146 -25 -18 -63 -44 -85 -59
-88 -60 -553 -407 -616 -460 -13 -11 -58 -47 -99 -81 -41 -34 -91 -75 -110
-90 -19 -16 -51 -42 -71 -58 -19 -15 -42 -35 -51 -43 -8 -8 -37 -33 -63 -55
-27 -22 -53 -44 -59 -50 -33 -29 -186 -164 -215 -190 -261 -227 -704 -670
-1036 -1036 -42 -45 -176 -199 -206 -234 -9 -11 -48 -56 -86 -101 -37 -44 -84
-100 -103 -124 -19 -24 -40 -48 -45 -54 -6 -6 -26 -31 -45 -56 -19 -25 -37
-47 -40 -50 -21 -19 -316 -408 -448 -591 -198 -275 -554 -824 -700 -1079 -119
-209 -170 -299 -175 -311 -4 -8 -30 -54 -57 -104 -73 -130 -314 -614 -397
-795 -132 -286 -300 -689 -386 -926 -147 -399 -265 -762 -347 -1059 -23 -82
-48 -170 -55 -195 -12 -38 -70 -264 -80 -310 -2 -8 -21 -94 -44 -190 -22 -96
-42 -186 -45 -200 -3 -14 -14 -70 -25 -125 -11 -55 -22 -111 -24 -125 -3 -14
-8 -36 -11 -50 -3 -14 -8 -36 -10 -50 -2 -14 -11 -63 -20 -110 -8 -47 -18 -98
-20 -115 -16 -96 -37 -234 -41 -255 -2 -14 -7 -45 -10 -70 -3 -25 -8 -52 -10
-60 -2 -8 -7 -42 -10 -74 -3 -33 -7 -71 -10 -85 -2 -14 -7 -51 -10 -81 -3 -30
-7 -66 -10 -80 -3 -14 -7 -50 -10 -80 -2 -30 -7 -77 -10 -105 -3 -27 -7 -68
-10 -90 -2 -22 -7 -71 -10 -110 -4 -38 -8 -88 -10 -111 -2 -23 -7 -88 -10
-145 -4 -57 -8 -120 -10 -139 -26 -272 -26 -1461 -1 -1710 2 -19 7 -82 11
-140 3 -58 8 -125 10 -150 12 -150 17 -197 20 -215 2 -11 7 -54 10 -95 3 -41
8 -88 10 -105 2 -16 7 -51 10 -77 3 -27 7 -69 10 -95 3 -27 8 -61 10 -78 3
-16 7 -46 9 -65 25 -177 41 -289 51 -340 3 -14 7 -43 11 -65 5 -34 33 -196 50
-290 3 -16 14 -75 25 -130 20 -98 26 -130 34 -170 7 -41 86 -383 110 -480 14
-55 28 -111 31 -125 3 -14 19 -74 35 -134 17 -59 32 -117 34 -127 2 -11 15
-57 29 -102 14 -45 37 -122 52 -172 99 -334 284 -870 355 -1032 11 -23 19 -46
19 -50 0 -19 200 -487 331 -773 73 -161 351 -706 446 -875 50 -88 103 -182
118 -210 141 -251 441 -720 644 -1010 147 -209 448 -615 470 -635 4 -3 42 -50
86 -105 81 -103 258 -316 306 -370 15 -16 60 -68 100 -115 87 -100 71 -82 189
-211 289 -315 730 -751 978 -967 39 -34 146 -128 188 -165 54 -48 346 -291
399 -332 21 -16 52 -42 69 -56 68 -56 262 -203 456 -344 196 -143 715 -495
729 -495 3 1 55 101 115 223 60 122 183 372 273 555 91 184 163 335 161 337
-2 1 -77 52 -168 113 -279 186 -800 571 -955 707 -16 15 -45 39 -64 53 -36 29
-41 33 -122 103 -30 26 -74 63 -99 84 -260 217 -765 708 -1044 1015 -32 36
-75 83 -95 105 -47 50 -172 194 -231 265 -25 29 -55 65 -67 79 -13 14 -26 31
-31 36 -23 29 -178 221 -182 225 -3 3 -25 32 -50 65 -25 33 -47 62 -50 65 -17
16 -254 339 -347 473 -60 85 -253 376 -328 492 -93 144 -306 507 -398 677 -13
23 -39 70 -57 103 -39 71 -279 550 -308 615 -11 25 -37 81 -57 125 -20 44 -63
141 -95 216 -32 74 -67 155 -78 180 -11 24 -52 130 -92 234 -40 105 -78 204
-85 220 -32 75 -158 448 -218 645 -68 225 -86 287 -136 480 -28 107 -56 211
-61 230 -7 29 -19 82 -21 92 0 2 -4 21 -10 43 -15 60 -39 167 -45 195 -3 14
-14 68 -25 120 -11 52 -23 106 -25 120 -2 14 -9 48 -15 76 -5 28 -12 64 -15
80 -2 16 -7 40 -9 54 -11 54 -14 69 -20 121 -4 30 -9 57 -11 60 -3 5 -47 301
-59 404 -3 22 -7 56 -10 75 -3 19 -7 55 -10 80 -3 25 -8 56 -10 70 -2 14 -7
57 -10 95 -3 39 -8 86 -10 105 -2 19 -7 71 -10 115 -3 44 -8 91 -10 105 -2 14
-6 81 -10 150 -4 69 -8 141 -10 160 -23 239 -23 1139 0 1425 2 28 7 95 10 150
6 99 8 124 20 260 11 134 24 261 30 295 2 14 7 59 11 100 3 41 7 77 9 80 2 3
6 34 10 70 4 36 9 74 11 85 2 11 7 40 10 65 32 260 149 861 230 1187 19 78 37
150 39 160 15 74 148 529 219 748 139 429 326 910 496 1280 23 50 56 122 73
160 37 82 269 543 316 630 301 546 583 995 890 1415 170 234 437 577 535 691
17 19 54 62 81 94 57 68 281 322 304 346 9 9 64 67 123 130 229 246 535 545
803 784 184 165 445 382 655 544 80 62 154 120 165 129 35 28 397 287 515 367
63 43 117 79 118 81 2 1 -68 143 -156 316 -88 172 -216 422 -284 555 -67 134
-126 243 -129 243 -3 0 -82 -51 -175 -113z"/>
<path d="M22016 25307 c-93 -188 -170 -344 -171 -347 0 -3 -47 -97 -103 -209
-56 -112 -102 -205 -102 -207 0 -1 66 -47 148 -102 135 -90 293 -199 317 -219
6 -4 51 -37 100 -73 50 -35 95 -68 100 -72 10 -8 87 -67 155 -118 56 -42 323
-256 344 -275 6 -6 36 -30 66 -55 30 -25 60 -49 66 -55 6 -5 35 -30 64 -55 29
-25 58 -49 64 -55 6 -5 49 -44 96 -85 234 -208 572 -536 775 -751 152 -160
294 -317 376 -414 19 -22 36 -42 39 -45 5 -5 99 -115 135 -159 11 -13 25 -29
30 -35 6 -6 26 -31 45 -56 19 -25 37 -47 40 -50 13 -12 196 -247 292 -375 184
-246 420 -589 565 -820 90 -143 253 -414 253 -421 0 -4 6 -15 14 -23 7 -9 27
-41 43 -71 16 -30 50 -91 75 -135 85 -152 358 -684 358 -699 0 -2 25 -57 56
-122 289 -619 586 -1447 749 -2094 35 -138 86 -350 89 -365 2 -11 18 -83 34
-160 17 -77 33 -151 36 -165 2 -14 12 -65 21 -115 10 -49 19 -99 21 -110 1
-11 10 -58 18 -105 9 -47 19 -105 22 -130 3 -25 7 -52 9 -60 3 -8 9 -46 15
-85 5 -38 12 -81 14 -95 2 -14 7 -52 11 -85 4 -32 8 -66 10 -75 1 -8 6 -40 9
-70 4 -30 8 -69 11 -86 2 -17 7 -60 10 -95 3 -35 8 -75 10 -89 7 -47 33 -366
40 -480 16 -273 20 -412 20 -825 0 -407 -5 -628 -19 -815 -2 -19 -6 -89 -11
-155 -4 -66 -9 -127 -10 -136 -2 -9 -6 -52 -10 -95 -3 -43 -8 -95 -10 -114 -8
-61 -14 -113 -20 -170 -3 -30 -8 -71 -10 -90 -7 -57 -55 -403 -60 -430 -3 -14
-10 -54 -15 -90 -15 -95 -81 -437 -115 -600 -16 -75 -81 -349 -105 -445 -17
-66 -33 -128 -35 -138 -2 -9 -6 -21 -9 -25 -3 -5 -7 -21 -10 -36 -20 -112
-274 -908 -331 -1041 -7 -16 -23 -57 -34 -90 -12 -33 -25 -69 -30 -80 -5 -11
-19 -47 -31 -80 -13 -33 -29 -73 -36 -90 -7 -16 -36 -86 -64 -155 -50 -119
-75 -178 -105 -246 -8 -16 -28 -61 -45 -100 -84 -188 -289 -602 -377 -764 -17
-30 -45 -82 -63 -115 -165 -301 -418 -716 -598 -980 -74 -109 -229 -331 -244
-350 -5 -5 -67 -89 -140 -185 -135 -180 -258 -338 -312 -401 -17 -20 -47 -55
-65 -79 -19 -23 -40 -48 -46 -54 -6 -6 -37 -42 -69 -81 -32 -38 -89 -104 -125
-145 -63 -71 -95 -107 -236 -260 -83 -90 -573 -580 -666 -665 -41 -39 -106
-97 -144 -130 -38 -33 -78 -69 -90 -80 -88 -84 -411 -351 -616 -509 -68 -52
-128 -99 -134 -103 -216 -168 -646 -462 -960 -658 -103 -64 -492 -293 -525
-308 -8 -4 -60 -32 -115 -63 -191 -105 -761 -383 -975 -474 -118 -50 -228 -98
-245 -105 -16 -7 -73 -29 -125 -49 -52 -20 -104 -41 -115 -46 -113 -54 -745
-266 -1060 -357 -69 -19 -197 -54 -215 -58 -8 -2 -60 -15 -115 -30 -126 -34
-218 -56 -370 -90 -66 -15 -127 -28 -135 -30 -46 -11 -421 -84 -455 -89 -68
-11 -99 -16 -125 -21 -14 -3 -41 -7 -60 -10 -19 -3 -60 -10 -90 -15 -72 -12
-194 -28 -335 -46 -22 -2 -56 -6 -75 -9 -68 -9 -116 -14 -185 -21 -38 -3 -77
-8 -86 -9 -8 -2 -55 -6 -105 -10 -49 -3 -100 -8 -114 -10 -14 -2 -79 -7 -145
-11 -66 -3 -138 -8 -160 -10 -281 -23 -1106 -23 -1475 1 -214 13 -294 19 -405
30 -33 3 -85 8 -115 11 -30 3 -71 7 -90 9 -19 3 -60 7 -90 10 -83 9 -200 24
-350 45 -188 27 -207 30 -275 42 -33 5 -73 12 -90 14 -16 3 -50 9 -75 14 -25
6 -83 17 -130 25 -102 17 -123 22 -215 41 -38 9 -81 18 -95 20 -14 3 -45 10
-70 15 -25 6 -55 13 -66 15 -44 8 -543 135 -629 160 -49 14 -103 29 -120 34
-70 19 -279 85 -475 150 -116 38 -214 70 -219 70 -5 0 -18 -19 -29 -42 -19
-40 -87 -182 -210 -438 -27 -58 -87 -181 -132 -275 -117 -241 -171 -357 -168
-360 10 -8 595 -207 648 -221 8 -2 53 -15 100 -30 47 -14 99 -30 115 -34 17
-5 86 -25 155 -45 101 -29 437 -117 500 -130 8 -2 47 -11 85 -20 39 -9 77 -18
85 -20 173 -39 463 -99 520 -109 19 -3 44 -7 55 -10 11 -2 63 -11 115 -20 52
-9 109 -19 125 -21 83 -15 144 -25 185 -30 25 -3 56 -8 70 -10 37 -5 168 -24
220 -30 25 -4 56 -8 70 -10 14 -2 52 -6 85 -10 33 -3 71 -7 85 -10 14 -2 50
-6 80 -9 30 -3 78 -8 105 -11 28 -2 79 -7 115 -10 36 -3 85 -7 110 -10 41 -4
136 -11 275 -20 65 -4 317 -17 420 -21 100 -4 832 -3 940 0 84 3 342 16 410
21 122 8 234 16 265 20 19 2 75 7 124 10 49 4 96 8 105 10 9 1 50 6 92 9 41 4
86 9 100 10 13 2 51 7 84 10 33 4 71 9 85 11 14 2 50 7 80 10 30 3 80 10 110
15 30 5 75 11 100 14 25 3 101 15 170 27 69 11 134 22 145 24 62 8 115 17 153
26 23 5 59 12 80 15 83 12 507 103 705 150 9 2 27 6 38 9 12 2 36 9 53 14 17
6 42 12 56 15 14 2 102 25 195 51 94 26 178 48 188 50 16 4 97 28 282 85 128
39 412 132 460 150 28 10 115 42 195 70 129 46 391 146 445 169 11 5 56 23
100 41 98 41 190 80 365 158 374 167 772 365 1090 545 69 38 145 81 170 95 25
14 117 68 204 121 88 53 171 103 185 111 151 88 630 409 840 562 108 80 282
209 299 223 9 7 46 36 82 64 237 185 422 338 640 530 260 228 408 367 685 646
225 226 378 386 491 515 21 24 48 54 59 66 11 11 41 45 66 75 26 30 89 104
141 164 229 267 575 715 776 1005 56 80 114 163 129 185 35 51 262 398 290
445 11 19 53 87 91 150 169 274 399 693 565 1025 59 119 227 474 227 480 0 2
16 38 36 82 53 116 57 125 123 288 34 83 69 168 79 190 9 21 17 42 18 45 0 3
6 19 13 35 84 208 220 595 306 870 25 83 50 161 55 175 12 33 118 413 136 485
1 6 22 91 47 190 25 99 48 191 51 205 2 14 16 77 30 140 30 139 57 266 62 300
2 14 7 36 10 50 7 28 5 19 38 205 24 136 37 214 42 245 1 8 4 33 8 55 3 22 8
54 10 70 3 17 7 46 10 65 10 67 17 115 22 155 2 22 7 56 9 76 3 20 8 56 10 80
5 48 13 123 20 182 3 20 7 54 10 75 4 39 10 108 20 232 4 41 8 86 10 100 2 14
6 77 10 140 4 63 8 135 10 160 25 300 25 1313 0 1600 -2 25 -7 95 -10 155 -4
61 -8 124 -10 140 -1 17 -6 68 -9 115 -4 47 -9 101 -11 120 -2 19 -6 64 -10
100 -3 36 -8 81 -11 101 -2 20 -7 56 -9 80 -10 95 -16 145 -20 174 -7 44 -15
104 -21 150 -3 22 -12 85 -20 140 -8 55 -17 112 -19 127 -2 15 -8 51 -14 80
-6 29 -13 71 -16 93 -4 33 -39 219 -60 325 -3 14 -10 50 -16 80 -11 61 -13 68
-33 160 -34 159 -79 351 -97 421 -11 42 -21 85 -24 95 -2 10 -10 44 -19 74 -8
30 -24 91 -36 135 -222 828 -553 1698 -956 2510 -120 241 -158 314 -246 475
-23 41 -53 95 -66 120 -19 36 -196 340 -232 400 -193 317 -509 795 -659 995
-21 28 -79 106 -131 175 -92 123 -339 440 -350 450 -3 3 -39 46 -80 95 -68 82
-247 293 -260 305 -3 3 -41 45 -85 95 -44 49 -89 99 -100 111 -11 12 -74 79
-140 149 -152 162 -403 414 -564 564 -68 64 -133 125 -145 136 -62 58 -224
202 -321 285 -60 52 -115 99 -121 105 -45 39 -121 101 -264 215 -91 73 -173
138 -183 146 -242 193 -1029 744 -1063 744 -5 0 -85 -154 -178 -343z"/>
<path d="M8320 23374 c-168 -113 -470 -334 -645 -472 -145 -115 -489 -403
-515 -432 -3 -3 -43 -39 -89 -80 -315 -280 -720 -697 -1016 -1044 -27 -33 -55
-64 -60 -70 -6 -6 -30 -36 -55 -66 -25 -30 -49 -60 -55 -66 -5 -6 -23 -28 -40
-49 -16 -21 -50 -64 -75 -95 -25 -31 -56 -72 -70 -90 -14 -18 -33 -42 -44 -54
-10 -11 -32 -41 -49 -66 -17 -25 -33 -47 -37 -50 -5 -4 -61 -81 -167 -230 -34
-47 -283 -419 -338 -505 -300 -464 -639 -1120 -896 -1734 -38 -90 -69 -168
-69 -173 0 -4 -9 -27 -19 -51 -84 -184 -345 -987 -396 -1216 -2 -9 -23 -90
-45 -181 -23 -91 -44 -174 -46 -185 -2 -11 -13 -60 -24 -110 -11 -49 -22 -101
-24 -115 -3 -14 -18 -95 -35 -180 -30 -157 -65 -357 -76 -440 -3 -25 -8 -56
-10 -70 -3 -14 -7 -45 -10 -70 -3 -25 -8 -63 -11 -85 -3 -22 -7 -58 -10 -80
-2 -22 -7 -57 -9 -77 -12 -90 -14 -117 -20 -183 -3 -38 -8 -81 -10 -95 -2 -14
-7 -70 -10 -125 -4 -55 -8 -116 -10 -135 -27 -315 -27 -1303 0 -1580 2 -25 7
-79 10 -120 7 -97 15 -189 20 -220 2 -14 6 -59 10 -100 3 -41 8 -86 10 -100 2
-14 7 -50 10 -80 4 -30 8 -66 10 -80 2 -14 7 -50 10 -80 4 -30 9 -62 10 -70 3
-16 14 -85 21 -135 3 -16 9 -55 14 -85 5 -30 12 -72 16 -94 3 -21 8 -48 10
-60 2 -11 8 -46 14 -76 14 -76 32 -169 54 -275 41 -193 135 -579 181 -735 9
-30 18 -62 20 -70 14 -58 115 -376 166 -525 101 -296 248 -674 330 -853 16
-34 29 -64 29 -66 0 -3 18 -44 41 -93 23 -48 55 -117 71 -153 39 -85 218 -442
265 -528 20 -37 53 -98 75 -135 21 -38 38 -70 38 -72 0 -14 240 -409 384 -630
238 -367 601 -857 832 -1125 189 -219 279 -320 394 -444 102 -110 456 -464
560 -560 41 -38 98 -90 125 -115 98 -91 383 -335 479 -411 10 -8 33 -27 50
-41 17 -14 72 -56 121 -95 50 -38 95 -72 100 -77 41 -31 86 -65 110 -82 15
-11 39 -29 54 -41 31 -24 353 -251 394 -277 15 -9 38 -24 52 -33 l24 -16 179
364 c99 199 263 532 365 738 436 884 583 1183 731 1485 86 176 161 327 167
335 5 8 13 24 18 35 9 19 210 428 616 1250 224 454 501 1015 775 1570 103 209
281 569 395 800 425 861 498 1010 494 1010 -2 0 6 14 19 32 12 17 22 33 22 36
0 3 96 200 214 439 346 701 592 1201 682 1382 46 93 84 173 84 178 0 11 -21
53 -187 378 -77 151 -209 410 -293 575 -84 165 -203 399 -265 520 -62 121
-177 346 -255 500 -78 154 -198 388 -265 520 -67 132 -187 366 -265 520 -136
267 -215 422 -548 1075 -79 157 -149 291 -155 298 -5 6 -6 12 -2 12 4 0 3 6
-3 13 -10 12 -70 129 -377 732 -87 171 -208 409 -270 530 -178 348 -349 684
-530 1040 -92 182 -218 429 -280 550 -62 121 -177 346 -255 500 -78 154 -195
384 -260 510 -348 683 -435 853 -502 987 -40 81 -78 147 -84 148 -6 0 -48 -25
-94 -56z"/>
<path d="M21063 23378 c-12 -24 -135 -272 -274 -553 -259 -526 -490 -992 -884
-1790 -125 -253 -314 -635 -420 -850 -106 -214 -294 -595 -418 -845 -505
-1023 -688 -1393 -867 -1755 -182 -368 -366 -741 -858 -1735 -129 -261 -326
-659 -437 -885 -111 -225 -301 -610 -422 -855 -514 -1039 -605 -1223 -614
-1244 -5 -11 -13 -28 -19 -36 -5 -8 -95 -188 -199 -400 -104 -212 -302 -614
-441 -895 -139 -280 -344 -694 -455 -920 -503 -1018 -597 -1210 -830 -1680
-136 -275 -335 -678 -443 -895 -108 -217 -196 -397 -197 -400 -1 -3 -102 -207
-224 -455 -123 -247 -312 -630 -421 -850 -109 -220 -302 -611 -430 -870 -128
-258 -317 -641 -420 -850 -103 -209 -314 -636 -469 -949 -155 -313 -280 -571
-278 -573 7 -6 371 -123 384 -123 7 0 21 -4 31 -10 28 -16 500 -144 612 -166
14 -3 43 -10 65 -16 43 -11 56 -14 125 -28 25 -5 87 -18 138 -29 51 -12 109
-24 129 -27 19 -3 45 -8 57 -10 46 -10 123 -25 151 -29 17 -3 41 -7 55 -10 14
-2 45 -7 70 -11 24 -3 47 -7 50 -9 3 -2 33 -6 65 -10 33 -3 67 -8 75 -10 8 -3
35 -7 60 -10 25 -3 54 -7 65 -9 11 -2 49 -7 85 -11 36 -4 73 -9 82 -10 9 -2
48 -7 85 -10 37 -4 75 -8 83 -10 8 -2 51 -7 95 -11 44 -3 96 -8 115 -10 31 -2
83 -6 260 -19 368 -27 1180 -27 1540 0 230 18 289 22 365 30 78 8 148 16 175
20 14 2 48 7 75 10 94 10 218 26 313 41 75 11 89 13 182 29 52 9 109 18 125
21 80 13 520 103 585 120 8 2 53 13 100 24 47 11 92 22 100 25 8 2 42 10 75
19 548 137 1276 392 1795 629 30 13 78 35 105 47 235 105 693 343 980 510 22
13 49 28 60 34 11 6 31 19 45 27 14 9 90 57 170 106 123 76 338 217 430 281
14 9 70 48 125 86 132 92 386 283 560 422 142 113 433 359 471 398 11 11 50
46 85 77 187 165 533 510 754 754 50 54 97 106 105 115 8 9 40 45 70 80 30 36
57 67 60 70 32 30 341 414 462 575 284 377 628 906 833 1280 21 39 63 115 93
170 63 115 232 452 287 570 62 134 185 414 185 420 0 3 9 25 19 49 11 23 29
67 41 97 11 30 25 63 30 74 36 80 163 433 234 650 152 467 297 1040 372 1465
3 14 13 75 24 135 18 104 22 131 35 223 3 20 8 48 10 62 3 14 7 48 10 75 4 28
10 75 15 105 9 57 17 129 25 215 3 28 7 70 10 95 13 116 18 177 40 480 23 322
23 1034 0 1380 -2 30 -6 98 -10 150 -7 99 -11 160 -20 248 -11 113 -17 168
-20 192 -2 14 -7 53 -10 88 -4 35 -8 73 -10 84 -3 11 -7 46 -11 77 -3 31 -8
63 -9 73 -2 9 -6 38 -10 65 -4 26 -16 102 -27 168 -11 66 -22 134 -24 150 -3
17 -19 100 -35 185 -17 85 -33 169 -36 185 -2 17 -22 107 -44 200 -22 94 -42
177 -44 187 -4 19 -80 304 -105 398 -50 182 -157 511 -240 740 -23 63 -52 144
-65 180 -89 245 -276 672 -433 989 -266 539 -527 982 -880 1492 -159 231 -534
717 -657 853 -6 6 -35 40 -65 75 -30 36 -62 72 -70 81 -8 9 -49 54 -90 100
-231 260 -664 690 -900 896 -25 21 -47 41 -50 44 -3 4 -50 44 -105 90 -55 47
-106 91 -114 98 -64 61 -526 418 -696 537 -38 28 -79 58 -89 67 -11 10 -23 18
-27 18 -4 0 -42 25 -84 55 -43 30 -80 55 -84 55 -3 0 -16 -19 -28 -42z"/>
<path d="M12971 9314 c-20 -8 -103 -85 -200 -185 -91 -94 -224 -230 -294 -302
-165 -171 -192 -219 -192 -353 1 -85 3 -96 38 -165 83 -166 225 -257 412 -264
211 -8 382 127 409 325 7 47 12 118 21 305 4 61 8 130 10 155 8 88 18 286 18
337 0 41 -6 60 -27 88 -49 63 -128 87 -195 59z"/>
</g>
</svg>
