<svg version="1" xmlns="http://www.w3.org/2000/svg" width="3930.667" height="3930.667" viewBox="0 0 2948 2948"><path d="M1419.8.6c-.2.1-8.2.5-17.8.8-9.6.4-20 .8-23 1-3 .3-9.8.7-15 1.1-9.1.5-13.1.8-25 2-3 .2-8.2.7-11.5 1-12.9 1.1-21.1 2-29.5 3-1.9.3-5.5.7-8 1-5.2.6-33.3 4.4-37 5-20.6 3.3-42.5 7-50.5 8.6-5.5 1.1-11.3 2.2-13 2.5-1.6.3-4.8.9-7 1.4-2.2.5-5.6 1.2-7.5 1.5-1.9.3-5.5 1.1-8 1.6-7.2 1.7-8.3 1.9-12.5 2.8-2.2.5-10.1 2.3-17.5 4.1-7.4 1.8-13.9 3.3-14.5 3.4-.5.1-1.9.5-3 .9-1.1.3-3.1.8-4.5 1.1-4.4.9-24.1 6.3-39 10.6-8 2.3-15.8 4.6-17.5 5-9.8 2.4-81.8 26.8-91 30.9-1.1.5-6.9 2.8-13 5.1-13.2 5-42.6 17.1-51 21-3.3 1.5-7 3-8.3 3.4-2.4.8-2.1 1.4 45.2 93.8l9 17.7 3.6-1.6c1.9-.8 5.1-2.2 7-3.1 1.9-.9 3.7-1.6 4-1.7.3-.1 1.6-.7 3-1.2 9.9-4.3 37.2-15.1 50.5-20.1 15-5.6 59.7-20.9 63.4-21.7.9-.2 5.4-1.6 10.1-3 29.7-9.2 80.1-22.2 106.9-27.5 2.5-.5 5.7-1.2 7.1-1.5 2.5-.5 16.8-3.3 20.5-4 1.8-.3 7.5-1.3 16.8-2.9 1.5-.3 3.5-.7 4.5-1 .9-.2 4-.7 6.7-1.1 2.8-.3 8.8-1.2 13.5-2 4.7-.8 10.1-1.6 12-1.9 1.9-.2 8.7-1.1 15-2 6.3-.8 13.8-1.8 16.5-2 2.8-.3 8.8-1 13.5-1.5 4.7-.6 11.9-1.3 16-1.7 4.1-.3 8.9-.8 10.5-.9 1.7-.2 7.4-.6 12.8-1s11.7-.8 14-1c45.9-3.8 129.6-3.2 180.7 1.1 3.6.3 9 .7 12 .9 3 .3 7.6.7 10.3 1 5.6.6 12.2 1.3 19.7 2 6.4.7 9.5 1 21 2.6 4.7.6 10.1 1.3 12 1.5 1.9.2 4.6.6 6 .8 1.4.3 4.5.8 7 1.1 2.5.3 5.6.8 7 1 1.4.3 3.9.7 5.5.9 1.7.3 7.3 1.2 12.5 2.1 5.2.9 10.6 1.8 12 2 6.2.9 25.1 4.7 42.5 8.5 10.5 2.2 20.1 4.3 21.5 4.6 7.1 1.5 47.2 11.8 59 15.3 26.5 7.7 31.7 9.3 48.5 14.8 15.9 5.2 50.5 17.3 55 19.2 1.1.5 4.5 1.9 7.5 3.1 3 1.1 6.4 2.5 7.5 3 1.1.4 6.3 2.5 11.5 4.5 5.2 2.1 15 6.2 21.8 9.1 6.8 3 12.5 5.4 12.8 5.4.3 0 45.5-90.8 52.6-105.8 1.2-2.5 1.7-4.7 1.2-5.2-2.4-2.4-56.7-24.4-89.9-36.5-33.3-12.1-92.3-30.7-114.1-36-1-.3-12.6-3.2-25.7-6.4-13.1-3.3-25-6.2-26.5-6.5-1.5-.2-7-1.4-12.2-2.6-8.8-2-31.9-6.7-36.5-7.5-1.1-.2-6-1.1-11-2-4.9-.9-10.1-1.8-11.5-2.1-12.9-2.3-56.5-8.7-67.5-9.9-2.7-.3-9-1-14-1.6-4.9-.6-10.8-1.2-13-1.4-14.8-1.3-18.3-1.7-20.5-2-1.4-.2-7-.7-12.5-1-5.5-.4-11.6-.8-13.5-1-1.9-.2-8.9-.6-15.5-1-6.6-.3-15.8-.8-20.5-1.1-8.8-.6-99.8-1.3-100.2-.8zM1425.6 247.8c-.2.1-6.1.4-13.2.7-17.5.7-29 1.3-37.1 2-7.7.7-13.7 1.2-23.8 2-3.8.3-8.6.8-10.5 1-1.9.3-6 .7-9 1-3 .3-7.3.8-9.5 1-2.2.3-6 .8-8.5 1.1-2.5.3-5.6.7-7 .9-1.4.3-4.7.7-7.5 1.1-2.7.3-15.3 2.3-28 4.4-70.3 11.9-127.3 26.6-193.5 49.8-19.7 6.9-69.9 26.7-71.3 28.1-.5.5 5.3 12.9 12.8 27.7 7.6 14.8 19.3 37.7 26 50.9 6.7 13.2 19.6 38.4 28.5 56 8.9 17.6 21.5 42.3 28 55 6.5 12.6 17.9 35.1 25.5 50 17 33.4 35.5 69.7 53.5 105 7.6 14.8 19.7 38.7 27 53 7.3 14.3 18.8 36.8 25.5 50 6.7 13.2 18.9 37 27 53 8.1 15.9 21.1 41.4 28.8 56.5 7.6 15.1 19.2 37.8 25.7 50.5 6.5 12.6 18.4 36 26.5 52 8.1 15.9 20.3 39.8 27 53 6.7 13.2 18.7 36.6 26.5 52 21.1 41.4 38.7 76 52.8 103.5 13.9 27.2 12.9 25.3 16.9 33.2 1.5 3.2 3 5.8 3.3 5.8.3-.1 4.9-8.9 10.2-19.8 5.3-10.8 22.8-46.3 38.9-78.7 16-32.5 37.1-75.2 46.9-95 24.7-50.1 60.1-121.8 131-265 12.8-25.9 31.7-64.1 42-85 10.3-20.9 29-58.7 41.5-84 12.5-25.3 31.2-63.1 41.5-84s30.6-61.9 45-91c43.6-88.2 49.9-100.9 50.2-102.3.2-.8-1.9-2.2-5.2-3.6-3-1.2-7.1-3-9-3.8-9.4-4.3-37.4-15-60-23.1-41.6-14.8-91.7-29.2-133.5-38.3-3.8-.9-7.7-1.7-8.5-1.9-13-3-65.2-12.2-80-14-3-.4-6.3-.9-7.2-1-.9-.2-4.4-.6-7.7-1-3.3-.3-6.8-.7-7.8-.9-1-.2-5-.7-8.8-1.1-3.7-.3-8.2-.8-9.9-1-4.4-.6-13-1.4-21.1-2-3.8-.3-9.9-.7-13.5-1-25.9-2-48.6-2.8-84.8-2.9-17.8-.1-32.5 0-32.6.2zM710.4 393.3c-9.3 6.3-18.9 12.8-21.4 14.6-2.5 1.8-6.3 4.4-8.5 5.9-8.8 6-55.3 40.7-61.6 46-1.3 1.1-5.8 4.7-9.9 8.1-4.1 3.4-9.1 7.5-11 9-1.9 1.6-5.1 4.2-7.1 5.8-1.9 1.5-4.2 3.5-5.1 4.3-.8.8-3.7 3.3-6.3 5.5-2.7 2.2-5.3 4.4-5.9 5-3.3 2.9-18.6 16.4-21.5 19-26.1 22.7-70.4 67-103.6 103.6-4.2 4.5-17.6 19.9-20.6 23.4-.9 1.1-4.8 5.6-8.6 10.1-3.7 4.4-8.4 10-10.3 12.4-1.9 2.4-4 4.8-4.5 5.4-.6.6-2.6 3.1-4.5 5.6-1.9 2.5-3.7 4.7-4 5-2.1 1.9-31.6 40.8-44.8 59.1-19.8 27.5-55.4 82.4-70 107.9-11.9 20.9-17 29.9-17.5 31.1-.4.8-3 5.4-5.7 10.4-7.3 13-31.4 61.4-39.7 79.5-13.2 28.6-30 68.9-38.6 92.6-14.7 39.9-26.5 76.2-34.7 105.9-2.3 8.2-4.8 17-5.5 19.5-1.2 3.8-7 26.4-8 31-.2.8-2.1 9.4-4.4 19-2.2 9.6-4.2 18.6-4.5 20-.3 1.4-1.4 7-2.5 12.5s-2.2 11.1-2.4 12.5c-.3 1.4-.8 3.6-1.1 5-.3 1.4-.8 3.6-1 5-.2 1.4-1.1 6.3-2 11-.8 4.7-1.8 9.8-2 11.5-1.6 9.6-3.7 23.4-4.1 25.5-.2 1.4-.7 4.5-1 7-.3 2.5-.8 5.2-1 6-.2.8-.7 4.2-1 7.4-.3 3.3-.7 7.1-1 8.5-.2 1.4-.7 5.1-1 8.1-.3 3-.7 6.6-1 8-.3 1.4-.7 5-1 8-.2 3-.7 7.7-1 10.5-.3 2.7-.7 6.8-1 9-.2 2.2-.7 7.1-1 11-.4 3.8-.8 8.8-1 11.1-.2 2.3-.7 8.8-1 14.5-.4 5.7-.8 12-1 13.9-2.6 27.2-2.6 146.1-.1 171 .2 1.9.7 8.2 1.1 14 .3 5.8.8 12.5 1 15 1.2 15 1.7 19.7 2 21.5.2 1.1.7 5.4 1 9.5.3 4.1.8 8.8 1 10.5.2 1.6.7 5.1 1 7.7.3 2.7.7 6.9 1 9.5.3 2.7.8 6.1 1 7.8.3 1.6.7 4.6.9 6.5 2.5 17.7 4.1 28.9 5.1 34 .3 1.4.7 4.3 1.1 6.5.5 3.4 3.3 19.6 5 29 .3 1.6 1.4 7.5 2.5 13 2 9.8 2.6 13 3.4 17 .7 4.1 8.6 38.3 11 48 1.4 5.5 2.8 11.1 3.1 12.5.3 1.4 1.9 7.4 3.5 13.4 1.7 5.9 3.2 11.7 3.4 12.7.2 1.1 1.5 5.7 2.9 10.2 1.4 4.5 3.7 12.2 5.2 17.2 9.9 33.4 28.4 87 35.5 103.2 1.1 2.3 1.9 4.6 1.9 5 0 1.9 20 48.7 33.1 77.3 7.3 16.1 35.1 70.6 44.6 87.5 5 8.8 10.3 18.2 11.8 21 14.1 25.1 44.1 72 64.4 101 14.7 20.9 44.8 61.5 47 63.5.4.3 4.2 5 8.6 10.5 8.1 10.3 25.8 31.6 30.6 37 1.5 1.6 6 6.8 10 11.5 8.7 10 7.1 8.2 18.9 21.1 28.9 31.5 73 75.1 97.8 96.7 3.9 3.4 14.6 12.8 18.8 16.5 5.4 4.8 34.6 29.1 39.9 33.2 2.1 1.6 5.2 4.2 6.9 5.6 6.8 5.6 26.2 20.3 45.6 34.4 19.6 14.3 71.5 49.5 72.9 49.5.3-.1 5.5-10.1 11.5-22.3 6-12.2 18.3-37.2 27.3-55.5 9.1-18.4 16.3-33.5 16.1-33.7-.2-.1-7.7-5.2-16.8-11.3-27.9-18.6-80-57.1-95.5-70.7-1.6-1.5-4.5-3.9-6.4-5.3-3.6-2.9-4.1-3.3-12.2-10.3-3-2.6-7.4-6.3-9.9-8.4-26-21.7-76.5-70.8-104.4-101.5-3.2-3.6-7.5-8.3-9.5-10.5-4.7-5-17.2-19.4-23.1-26.5-2.5-2.9-5.5-6.5-6.7-7.9-1.3-1.4-2.6-3.1-3.1-3.6-2.3-2.9-17.8-22.1-18.2-22.5-.3-.3-2.5-3.2-5-6.5s-4.7-6.2-5-6.5c-1.7-1.6-25.4-33.9-34.7-47.3-6-8.5-25.3-37.6-32.8-49.2-9.3-14.4-30.6-50.7-39.8-67.7-1.3-2.3-3.9-7-5.7-10.3-3.9-7.1-27.9-55-30.8-61.5-1.1-2.5-3.7-8.1-5.7-12.5s-6.3-14.1-9.5-21.6c-3.2-7.4-6.7-15.5-7.8-18-1.1-2.4-5.2-13-9.2-23.4-4-10.5-7.8-20.4-8.5-22-3.2-7.5-15.8-44.8-21.8-64.5-6.8-22.5-8.6-28.7-13.6-48-2.8-10.7-5.6-21.1-6.1-23-.7-2.9-1.9-8.2-2.1-9.2 0-.2-.4-2.1-1-4.3-1.5-6-3.9-16.7-4.5-19.5-.3-1.4-1.4-6.8-2.5-12s-2.3-10.6-2.5-12c-.2-1.4-.9-4.8-1.5-7.6-.5-2.8-1.2-6.4-1.5-8-.2-1.6-.7-4-.9-5.4-1.1-5.4-1.4-6.9-2-12.1-.4-3-.9-5.7-1.1-6-.3-.5-4.7-30.1-5.9-40.4-.3-2.2-.7-5.6-1-7.5-.3-1.9-.7-5.5-1-8-.3-2.5-.8-5.6-1-7-.2-1.4-.7-5.7-1-9.5-.3-3.9-.8-8.6-1-10.5-.2-1.9-.7-7.1-1-11.5-.3-4.4-.8-9.1-1-10.5-.2-1.4-.6-8.1-1-15s-.8-14.1-1-16c-2.3-23.9-2.3-113.9 0-142.5.2-2.8.7-9.5 1-15 .6-9.9.8-12.4 2-26 1.1-13.4 2.4-26.1 3-29.5.2-1.4.7-5.9 1.1-10 .3-4.1.7-7.7.9-8 .2-.3.6-3.4 1-7s.9-7.4 1.1-8.5c.2-1.1.7-4 1-6.5 3.2-26 14.9-86.1 23-118.7 1.9-7.8 3.7-15 3.9-16 1.5-7.4 14.8-52.9 21.9-74.8 13.9-42.9 32.6-91 49.6-128 2.3-5 5.6-12.2 7.3-16 3.7-8.2 26.9-54.3 31.6-63 30.1-54.6 58.3-99.5 89-141.5 17-23.4 43.7-57.7 53.5-69.1 1.7-1.9 5.4-6.2 8.1-9.4 5.7-6.8 28.1-32.2 30.4-34.6.9-.9 6.4-6.7 12.3-13 22.9-24.6 53.5-54.5 80.3-78.4 18.4-16.5 44.5-38.2 65.5-54.4 8-6.2 15.4-12 16.5-12.9 3.5-2.8 39.7-28.7 51.5-36.7 6.3-4.3 11.7-7.9 11.8-8.1.2-.1-6.8-14.3-15.6-31.6-8.8-17.2-21.6-42.2-28.4-55.5-6.7-13.4-12.6-24.3-12.9-24.3-.3 0-8.2 5.1-17.5 11.3zM2201.6 417.3c-9.3 18.8-17 34.4-17.1 34.7 0 .3-4.7 9.7-10.3 20.9-5.6 11.2-10.2 20.5-10.2 20.7 0 .1 6.6 4.7 14.8 10.2 13.5 9 29.3 19.9 31.7 21.9.6.4 5.1 3.7 10 7.3 5 3.5 9.5 6.8 10 7.2 1 .8 8.7 6.7 15.5 11.8 5.6 4.2 32.3 25.6 34.4 27.5.6.6 3.6 3 6.6 5.5 3 2.5 6 4.9 6.6 5.5.6.5 3.5 3 6.4 5.5 2.9 2.5 5.8 4.9 6.4 5.5.6.5 4.9 4.4 9.6 8.5 23.4 20.8 57.2 53.6 77.5 75.1 15.2 16 29.4 31.7 37.6 41.4 1.9 2.2 3.6 4.2 3.9 4.5.5.5 9.9 11.5 13.5 15.9 1.1 1.3 2.5 2.9 3 3.5.6.6 2.6 3.1 4.5 5.6 1.9 2.5 3.7 4.7 4 5 1.3 1.2 19.6 24.7 29.2 37.5 18.4 24.6 42 58.9 56.5 82 9 14.3 25.3 41.4 25.3 42.1 0 .4.6 1.5 1.4 2.3.7.9 2.7 4.1 4.3 7.1 1.6 3 5 9.1 7.5 13.5 8.5 15.2 35.8 68.4 35.8 69.9 0 .2 2.5 5.7 5.6 12.2 28.9 61.9 58.6 144.7 74.9 209.4 3.5 13.8 8.6 35 8.9 36.5.2 1.1 1.8 8.3 3.4 16 1.7 7.7 3.3 15.1 3.6 16.5.2 1.4 1.2 6.5 2.1 11.5 1 4.9 1.9 9.9 2.1 11 .1 1.1 1 5.8 1.8 10.5.9 4.7 1.9 10.5 2.2 13 .3 2.5.7 5.2.9 6 .3.8.9 4.6 1.5 8.5.5 3.8 1.2 8.1 1.4 9.5.2 1.4.7 5.2 1.1 8.5.4 3.2.8 6.6 1 7.5.1.8.6 4 .9 7 .4 3 .8 6.9 1.1 8.6.2 1.7.7 6 1 9.5.3 3.5.8 7.5 1 8.9.7 4.7 3.3 36.6 4 48 1.6 27.3 2 41.2 2 82.5 0 40.7-.5 62.8-1.9 81.5-.2 1.9-.6 8.9-1.1 15.5-.4 6.6-.9 12.7-1 13.6-.2.9-.6 5.2-1 9.5-.3 4.3-.8 9.5-1 11.4-.8 6.1-1.4 11.3-2 17-.3 3-.8 7.1-1 9-.7 5.7-5.5 40.3-6 43-.3 1.4-1 5.4-1.5 9-1.5 9.5-8.1 43.7-11.5 60-1.6 7.5-8.1 34.9-10.5 44.5-1.7 6.6-3.3 12.8-3.5 13.8-.2.9-.6 2.1-.9 2.5-.3.5-.7 2.1-1 3.6-2 11.2-27.4 90.8-33.1 104.1-.7 1.6-2.3 5.7-3.4 9-1.2 3.3-2.5 6.9-3 8-.5 1.1-1.9 4.7-3.1 8-1.3 3.3-2.9 7.3-3.6 9-.7 1.6-3.6 8.6-6.4 15.5-5 11.9-7.5 17.8-10.5 24.6-.8 1.6-2.8 6.1-4.5 10-8.4 18.8-28.9 60.2-37.7 76.4-1.7 3-4.5 8.2-6.3 11.5-16.5 30.1-41.8 71.6-59.8 98-7.4 10.9-22.9 33.1-24.4 35-.5.5-6.7 8.9-14 18.5-13.5 18-25.8 33.8-31.2 40.1-1.7 2-4.7 5.5-6.5 7.9-1.9 2.3-4 4.8-4.6 5.4-.6.6-3.7 4.2-6.9 8.1-3.2 3.8-8.9 10.4-12.5 14.5-6.3 7.1-9.5 10.7-23.6 26-8.3 9-57.3 58-66.6 66.5-4.1 3.9-10.6 9.7-14.4 13-3.8 3.3-7.8 6.9-9 8-8.8 8.4-41.1 35.1-61.6 50.9-6.8 5.2-12.8 9.9-13.4 10.3-21.6 16.8-64.6 46.2-96 65.8-10.3 6.4-49.2 29.3-52.5 30.8-.8.4-6 3.2-11.5 6.3-19.1 10.5-76.1 38.3-97.5 47.4-11.8 5-22.8 9.8-24.5 10.5-1.6.7-7.3 2.9-12.5 4.9-5.2 2-10.4 4.1-11.5 4.6-11.3 5.4-74.5 26.6-106 35.7-6.9 1.9-19.7 5.4-21.5 5.8-.8.2-6 1.5-11.5 3-12.6 3.4-21.8 5.6-37 9-6.6 1.5-12.7 2.8-13.5 3-4.6 1.1-42.1 8.4-45.5 8.9-6.8 1.1-9.9 1.6-12.5 2.1-1.4.3-4.1.7-6 1-1.9.3-6 1-9 1.5-7.2 1.2-19.4 2.8-33.5 4.6-2.2.2-5.6.6-7.5.9-6.8.9-11.6 1.4-18.5 2.1-3.8.3-7.7.8-8.6.9-.8.2-5.5.6-10.5 1-4.9.3-10 .8-11.4 1-1.4.2-7.9.7-14.5 1.1-6.6.3-13.8.8-16 1-28.1 2.3-110.6 2.3-147.5-.1-21.4-1.3-29.4-1.9-40.5-3-3.3-.3-8.5-.8-11.5-1.1-3-.3-7.1-.7-9-.9-1.9-.3-6-.7-9-1-8.3-.9-20-2.4-35-4.5-18.8-2.7-20.7-3-27.5-4.2-3.3-.5-7.3-1.2-9-1.4-1.6-.3-5-.9-7.5-1.4-2.5-.6-8.3-1.7-13-2.5-10.2-1.7-12.3-2.2-21.5-4.1-3.8-.9-8.1-1.8-9.5-2-1.4-.3-4.5-1-7-1.5-2.5-.6-5.5-1.3-6.6-1.5-4.4-.8-54.3-13.5-62.9-16-4.9-1.4-10.3-2.9-12-3.4-7-1.9-27.9-8.5-47.5-15-11.6-3.8-21.4-7-21.9-7s-1.8 1.9-2.9 4.2c-1.9 4-8.7 18.2-21 43.8-2.7 5.8-8.7 18.1-13.2 27.5-11.7 24.1-17.1 35.7-16.8 36 1 .8 59.5 20.7 64.8 22.1.8.2 5.3 1.5 10 3 4.7 1.4 9.9 3 11.5 3.4 1.7.5 8.6 2.5 15.5 4.5 10.1 2.9 43.7 11.7 50 13 .8.2 4.7 1.1 8.5 2 3.9.9 7.7 1.8 8.5 2 17.3 3.9 46.3 9.9 52 10.9 1.9.3 4.4.7 5.5 1 1.1.2 6.3 1.1 11.5 2 5.2.9 10.9 1.9 12.5 2.1 8.3 1.5 14.4 2.5 18.5 3 2.5.3 5.6.8 7 1 3.7.5 16.8 2.4 22 3 2.5.4 5.6.8 7 1 1.4.2 5.2.6 8.5 1 3.3.3 7.1.7 8.5 1 1.4.2 5 .6 8 .9 3 .3 7.8.8 10.5 1.1 2.8.2 7.9.7 11.5 1 3.6.3 8.5.7 11 1 4.1.4 13.6 1.1 27.5 2 6.5.4 31.7 1.7 42 2.1 10 .4 83.2.3 94 0 8.4-.3 34.2-1.6 41-2.1 12.2-.8 23.4-1.6 26.5-2 1.9-.2 7.5-.7 12.4-1 4.9-.4 9.6-.8 10.5-1 .9-.1 5-.6 9.2-.9 4.1-.4 8.6-.9 10-1 1.3-.2 5.1-.7 8.4-1 3.3-.4 7.1-.9 8.5-1.1 1.4-.2 5-.7 8-1 3-.3 8-1 11-1.5s7.5-1.1 10-1.4c2.5-.3 10.1-1.5 17-2.7 6.9-1.1 13.4-2.2 14.5-2.4 6.2-.8 11.5-1.7 15.3-2.6 2.3-.5 5.9-1.2 8-1.5 8.3-1.2 50.7-10.3 70.5-15 .9-.2 2.7-.6 3.8-.9 1.2-.2 3.6-.9 5.3-1.4 1.7-.6 4.2-1.2 5.6-1.5 1.4-.2 10.2-2.5 19.5-5.1 9.4-2.6 17.8-4.8 18.8-5 1.6-.4 9.7-2.8 28.2-8.5 12.8-3.9 41.2-13.2 46-15 2.8-1 11.5-4.2 19.5-7 12.9-4.6 39.1-14.6 44.5-16.9 1.1-.5 5.6-2.3 10-4.1 9.8-4.1 19-8 36.5-15.8 37.4-16.7 77.2-36.5 109-54.5 6.9-3.8 14.5-8.1 17-9.5 2.5-1.4 11.7-6.8 20.4-12.1 8.8-5.3 17.1-10.3 18.5-11.1 15.1-8.8 63-40.9 84-56.2 10.8-8 28.2-20.9 29.9-22.3.9-.7 4.6-3.6 8.2-6.4 23.7-18.5 42.2-33.8 64-53 26-22.8 40.8-36.7 68.5-64.6 22.5-22.6 37.8-38.6 49.1-51.5 2.1-2.4 4.8-5.4 5.9-6.6 1.1-1.1 4.1-4.5 6.6-7.5 2.6-3 8.9-10.4 14.1-16.4 22.9-26.7 57.5-71.5 77.6-100.5 5.6-8 11.4-16.3 12.9-18.5 3.5-5.1 26.2-39.8 29-44.5 1.1-1.9 5.3-8.7 9.1-15 16.9-27.4 39.9-69.3 56.5-102.5 5.9-11.9 22.7-47.4 22.7-48 0-.2 1.6-3.8 3.6-8.2 5.3-11.6 5.7-12.5 12.3-28.8 3.4-8.3 6.9-16.8 7.9-19 .9-2.1 1.7-4.2 1.8-4.5 0-.3.6-1.9 1.3-3.5 8.4-20.8 22-59.5 30.6-87 2.5-8.3 5-16.1 5.5-17.5 1.2-3.3 11.8-41.3 13.6-48.5.1-.6 2.2-9.1 4.7-19s4.8-19.1 5.1-20.5c.2-1.4 1.6-7.7 3-14 3-13.9 5.7-26.6 6.2-30 .2-1.4.7-3.6 1-5 .7-2.8.5-1.9 3.8-20.5 2.4-13.6 3.7-21.4 4.2-24.5.1-.8.4-3.3.8-5.5.3-2.2.8-5.4 1-7 .3-1.7.7-4.6 1-6.5 1-6.7 1.7-11.5 2.2-15.5.2-2.2.7-5.6.9-7.6.3-2 .8-5.6 1-8 .5-4.8 1.3-12.3 2-18.2.3-2 .7-5.4 1-7.5.4-3.9 1-10.8 2-23.2.4-4.1.8-8.6 1-10 .2-1.4.6-7.7 1-14s.8-13.5 1-16c2.5-30 2.5-131.3 0-160-.2-2.5-.7-9.5-1-15.5-.4-6.1-.8-12.4-1-14-.1-1.7-.6-6.8-.9-11.5-.4-4.7-.9-10.1-1.1-12-.2-1.9-.6-6.4-1-10-.3-3.6-.8-8.1-1.1-10.1-.2-2-.7-5.6-.9-8-1-9.5-1.6-14.5-2-17.4-.7-4.4-1.5-10.4-2.1-15-.3-2.2-1.2-8.5-2-14s-1.7-11.2-1.9-12.7c-.2-1.5-.8-5.1-1.4-8-.6-2.9-1.3-7.1-1.6-9.3-.4-3.3-3.9-21.9-6-32.5-.3-1.4-1-5-1.6-8-1.1-6.1-1.3-6.8-3.3-16-3.4-15.9-7.9-35.1-9.7-42.1-1.1-4.2-2.1-8.5-2.4-9.5-.2-1-1-4.4-1.9-7.4-.8-3-2.4-9.1-3.6-13.5-22.2-82.8-55.3-169.8-95.6-251-12-24.1-15.8-31.4-24.6-47.5-2.3-4.1-5.3-9.5-6.6-12-1.9-3.6-19.6-34-23.2-40-19.3-31.7-50.9-79.5-65.9-99.5-2.1-2.8-7.9-10.6-13.1-17.5-9.2-12.3-33.9-44-35-45-.3-.3-3.9-4.6-8-9.5-6.8-8.2-24.7-29.3-26-30.5-.3-.3-4.1-4.5-8.5-9.5-4.4-4.9-8.9-9.9-10-11.1-1.1-1.2-7.4-7.9-14-14.9-15.2-16.2-40.3-41.4-56.4-56.4-6.8-6.4-13.3-12.5-14.5-13.6-6.2-5.8-22.4-20.2-32.1-28.5-6-5.2-11.5-9.9-12.1-10.5-4.5-3.9-12.1-10.1-26.4-21.5-9.1-7.3-17.3-13.8-18.3-14.6-24.2-19.3-102.9-74.4-106.3-74.4-.5 0-8.5 15.4-17.8 34.3z"/><path d="M832 610.6c-16.8 11.3-47 33.4-64.5 47.2-14.5 11.5-48.9 40.3-51.5 43.2-.3.3-4.3 3.9-8.9 8-31.5 28-72 69.7-101.6 104.4-2.7 3.3-5.5 6.4-6 7-.6.6-3 3.6-5.5 6.6-2.5 3-4.9 6-5.5 6.6-.5.6-2.3 2.8-4 4.9-1.6 2.1-5 6.4-7.5 9.5-2.5 3.1-5.6 7.2-7 9-1.4 1.8-3.3 4.2-4.4 5.4-1 1.1-3.2 4.1-4.9 6.6-1.7 2.5-3.3 4.7-3.7 5-.5.4-6.1 8.1-16.7 23-3.4 4.7-28.3 41.9-33.8 50.5-30 46.4-63.9 112-89.6 173.4-3.8 9-6.9 16.8-6.9 17.3 0 .4-.9 2.7-1.9 5.1-8.4 18.4-34.5 98.7-39.6 121.6-.2.9-2.3 9-4.5 18.1-2.3 9.1-4.4 17.4-4.6 18.5-.2 1.1-1.3 6-2.4 11-1.1 4.9-2.2 10.1-2.4 11.5-.3 1.4-1.8 9.5-3.5 18-3 15.7-6.5 35.7-7.6 44-.3 2.5-.8 5.6-1 7-.3 1.4-.7 4.5-1 7-.3 2.5-.8 6.3-1.1 8.5-.3 2.2-.7 5.8-1 8-.2 2.2-.7 5.7-.9 7.7-1.2 9-1.4 11.7-2 18.3-.3 3.8-.8 8.1-1 9.5-.2 1.4-.7 7-1 12.5-.4 5.5-.8 11.6-1 13.5-2.7 31.5-2.7 130.3 0 158 .2 2.5.7 7.9 1 12 .7 9.7 1.5 18.9 2 22 .2 1.4.6 5.9 1 10 .3 4.1.8 8.6 1 10 .2 1.4.7 5 1 8 .4 3 .8 6.6 1 8 .2 1.4.7 5 1 8 .4 3 .9 6.2 1 7 .3 1.6 1.4 8.5 2.1 13.5.3 1.6.9 5.5 1.4 8.5.5 3 1.2 7.2 1.6 9.4.3 2.1.8 4.8 1 6 .2 1.1.8 4.6 1.4 7.6 1.4 7.6 3.2 16.9 5.4 27.5 4.1 19.3 13.5 57.9 18.1 73.5.9 3 1.8 6.2 2 7 1.4 5.8 11.5 37.6 16.6 52.5 10.1 29.6 24.8 67.4 33 85.3 1.6 3.4 2.9 6.4 2.9 6.6 0 .3 1.8 4.4 4.1 9.3 2.3 4.8 5.5 11.7 7.1 15.3 3.9 8.5 21.8 44.2 26.5 52.8 2 3.7 5.3 9.8 7.5 13.5 2.1 3.8 3.8 7 3.8 7.2 0 1.4 24 40.9 38.4 63 23.8 36.7 60.1 85.7 83.2 112.5 18.9 21.9 27.9 32 39.4 44.4 10.2 11 45.6 46.4 56 56 4.1 3.8 9.8 9 12.5 11.5 9.8 9.1 38.3 33.5 47.9 41.1 1 .8 3.3 2.7 5 4.1 1.7 1.4 7.2 5.6 12.1 9.5 5 3.8 9.5 7.2 10 7.7 4.1 3.1 8.6 6.5 11 8.2 1.5 1.1 3.9 2.9 5.4 4.1 3.1 2.4 35.3 25.1 39.4 27.7 1.5.9 3.8 2.4 5.2 3.3l2.4 1.6 17.9-36.4c9.9-19.9 26.3-53.2 36.5-73.8 43.6-88.4 58.3-118.3 73.1-148.5 8.6-17.6 16.1-32.7 16.7-33.5.5-.8 1.3-2.4 1.8-3.5.9-1.9 21-42.8 61.6-125 22.4-45.4 50.1-101.5 77.5-157 10.3-20.9 28.1-56.9 39.5-80 42.5-86.1 49.8-101 49.4-101-.2 0 .6-1.4 1.9-3.2 1.2-1.7 2.2-3.3 2.2-3.6 0-.3 9.6-20 21.4-43.9 34.6-70.1 59.2-120.1 68.2-138.2 4.6-9.3 8.4-17.3 8.4-17.8 0-1.1-2.1-5.3-18.7-37.8-7.7-15.1-20.9-41-29.3-57.5-8.4-16.5-20.3-39.9-26.5-52-6.2-12.1-17.7-34.6-25.5-50-7.8-15.4-19.8-38.8-26.5-52-6.7-13.2-18.7-36.6-26.5-52-13.6-26.7-21.5-42.2-54.8-107.5-7.9-15.7-14.9-29.1-15.5-29.8-.5-.6-.6-1.2-.2-1.2.4 0 .3-.6-.3-1.3-1-1.2-7-12.9-37.7-73.2-8.7-17.1-20.8-40.9-27-53-17.8-34.8-34.9-68.4-53-104-9.2-18.2-21.8-42.9-28-55-6.2-12.1-17.7-34.6-25.5-50-7.8-15.4-19.5-38.4-26-51-34.8-68.3-43.5-85.3-50.2-98.7-4-8.1-7.8-14.7-8.4-14.8-.6 0-4.8 2.5-9.4 5.6zM2106.3 610.2c-1.2 2.4-13.5 27.2-27.4 55.3-25.9 52.6-49 99.2-88.4 179-12.5 25.3-31.4 63.5-42 85-10.6 21.4-29.4 59.5-41.8 84.5-50.5 102.3-68.8 139.3-86.7 175.5-18.2 36.8-36.6 74.1-85.8 173.5-12.9 26.1-32.6 65.9-43.7 88.5-11.1 22.5-30.1 61-42.2 85.5-51.4 103.9-60.5 122.3-61.4 124.4-.5 1.1-1.3 2.8-1.9 3.6-.5.8-9.5 18.8-19.9 40-10.4 21.2-30.2 61.4-44.1 89.5-13.9 28-34.4 69.4-45.5 92-50.3 101.8-59.7 121-83 168-13.6 27.5-33.5 67.8-44.3 89.5-10.8 21.7-19.6 39.7-19.7 40-.1.3-10.2 20.7-22.4 45.5-12.3 24.7-31.2 63-42.1 85-10.9 22-30.2 61.1-43 87-12.8 25.8-31.7 64.1-42 85-10.3 20.9-31.4 63.6-46.9 94.9-15.5 31.3-28 57.1-27.8 57.3.7.6 37.1 12.3 38.4 12.3.7 0 2.1.4 3.1 1 2.8 1.6 50 14.4 61.2 16.6 1.4.3 4.3 1 6.5 1.6 4.3 1.1 5.6 1.4 12.5 2.8 2.5.5 8.7 1.8 13.8 2.9 5.1 1.2 10.9 2.4 12.9 2.7 1.9.3 4.5.8 5.7 1 4.6 1 12.3 2.5 15.1 2.9 1.7.3 4.1.7 5.5 1 1.4.2 4.5.7 7 1.1 2.4.3 4.7.7 5 .9.3.2 3.3.6 6.5 1 3.3.3 6.7.8 7.5 1 .8.3 3.5.7 6 1 2.5.3 5.4.7 6.5.9 1.1.2 4.9.7 8.5 1.1 3.6.4 7.3.9 8.2 1 .9.2 4.8.7 8.5 1 3.7.4 7.5.8 8.3 1 .8.2 5.1.7 9.5 1.1 4.4.3 9.6.8 11.5 1 3.1.2 8.3.6 26 1.9 36.8 2.7 118 2.7 154 0 23-1.8 28.9-2.2 36.5-3 7.8-.8 14.8-1.6 17.5-2 1.4-.2 4.8-.7 7.5-1 9.4-1 21.8-2.6 31.3-4.1 7.5-1.1 8.9-1.3 18.2-2.9 5.2-.9 10.9-1.8 12.5-2.1 8-1.3 52-10.3 58.5-12 .8-.2 5.3-1.3 10-2.4 4.7-1.1 9.2-2.2 10-2.5.8-.2 4.2-1 7.5-1.9 54.8-13.7 127.6-39.2 179.5-62.9 3-1.3 7.8-3.5 10.5-4.7 23.5-10.5 69.3-34.3 98-51 2.2-1.3 4.9-2.8 6-3.4 1.1-.6 3.1-1.9 4.5-2.7 1.4-.9 9-5.7 17-10.6 12.3-7.6 33.8-21.7 43-28.1 1.4-.9 7-4.8 12.5-8.6 13.2-9.2 38.6-28.3 56-42.2 14.2-11.3 43.3-35.9 47.1-39.8 1.1-1.1 5-4.6 8.5-7.7 18.7-16.5 53.3-51 75.4-75.4 5-5.4 9.7-10.6 10.5-11.5.8-.9 4-4.5 7-8 3-3.6 5.7-6.7 6-7 3.2-3 34.1-41.4 46.2-57.5 28.4-37.7 62.8-90.6 83.3-128 2.1-3.9 6.3-11.5 9.3-17 6.3-11.5 23.2-45.2 28.7-57 6.2-13.4 18.5-41.4 18.5-42 0-.3.9-2.5 1.9-4.9 1.1-2.3 2.9-6.7 4.1-9.7 1.1-3 2.5-6.3 3-7.4 3.6-8 16.3-43.3 23.4-65 15.2-46.7 29.7-104 37.2-146.5.3-1.4 1.3-7.5 2.4-13.5 1.8-10.4 2.2-13.1 3.5-22.3.3-2 .8-4.8 1-6.2.3-1.4.7-4.8 1-7.5.4-2.8 1-7.5 1.5-10.5.9-5.7 1.7-12.9 2.5-21.5.3-2.8.7-7 1-9.5 1.3-11.6 1.8-17.7 4-48 2.3-32.2 2.3-103.4 0-138-.2-3-.6-9.8-1-15-.7-9.9-1.1-16-2-24.8-1.1-11.3-1.7-16.8-2-19.2-.2-1.4-.7-5.3-1-8.8-.4-3.5-.8-7.3-1-8.4-.3-1.1-.7-4.6-1.1-7.7-.3-3.1-.8-6.3-.9-7.3-.2-.9-.6-3.8-1-6.5-.4-2.6-1.6-10.2-2.7-16.8-1.1-6.6-2.2-13.4-2.4-15-.3-1.7-1.9-10-3.5-18.5-1.7-8.5-3.3-16.9-3.6-18.5-.2-1.7-2.2-10.7-4.4-20-2.2-9.4-4.2-17.7-4.4-18.7-.4-1.9-8-30.4-10.5-39.8-5-18.2-15.7-51.1-24-74-2.3-6.3-5.2-14.4-6.5-18-8.9-24.5-27.6-67.2-43.3-98.9-26.6-53.9-52.7-98.2-88-149.2-15.9-23.1-53.4-71.7-65.7-85.3-.6-.6-3.5-4-6.5-7.5-3-3.6-6.2-7.2-7-8.1-.8-.9-4.9-5.4-9-10-23.1-26-66.4-69-90-89.6-2.5-2.1-4.7-4.1-5-4.4-.3-.4-5-4.4-10.5-9-5.5-4.7-10.6-9.1-11.4-9.8-6.4-6.1-52.6-41.8-69.6-53.7-3.8-2.8-7.9-5.8-8.9-6.7-1.1-1-2.3-1.8-2.7-1.8-.4 0-4.2-2.5-8.4-5.5-4.3-3-8-5.5-8.4-5.5-.3 0-1.6 1.9-2.8 4.2zM1297.1 2016.6c-2 .8-10.3 8.5-20 18.5-9.1 9.4-22.4 23-29.4 30.2-16.5 17.1-19.2 21.9-19.2 35.3.1 8.5.3 9.6 3.8 16.5 8.3 16.6 22.5 25.7 41.2 26.4 21.1.8 38.2-12.7 40.9-32.5.7-4.7 1.2-11.8 2.1-30.5.4-6.1.8-13 1-15.5.8-8.8 1.8-28.6 1.8-33.7 0-4.1-.6-6-2.7-8.8-4.9-6.3-12.8-8.7-19.5-5.9z"/></svg>