<svg viewBox="0 0 134 172" xmlns="http://www.w3.org/2000/svg"><g fill="none" fill-rule="evenodd"><path d="M21.872 142.167L7.032 172H2.374l6.213-12.506L0 142.167h4.658l6.253 12.626 6.298-12.626h4.663zm20.397 0v17.328h-1.514l-1.75-1.31a9.761 9.761 0 0 1-2.714 1.534c-.994.37-2.059.55-3.203.55a9.115 9.115 0 0 1-3.549-.695 9.463 9.463 0 0 1-2.939-1.919 8.84 8.84 0 0 1-1.974-2.862 8.603 8.603 0 0 1-.715-3.473v-9.153h4.253v9.183c0 .655.13 1.274.39 1.844.26.57.615 1.074 1.065 1.514.45.444.975.784 1.574 1.029.6.245 1.24.37 1.92.37.68 0 1.33-.125 1.944-.37a4.712 4.712 0 0 0 1.594-1.03c.45-.434.805-.939 1.065-1.513.26-.575.39-1.194.39-1.844v-9.183h4.168-.005zm24.896-.775c1.254 0 2.424.24 3.514.715a8.926 8.926 0 0 1 2.864 1.983 9.703 9.703 0 0 1 1.944 2.923 8.949 8.949 0 0 1 .715 3.578v8.908h-4.169v-8.908c0-.71-.13-1.364-.39-1.964-.26-.6-.605-1.13-1.044-1.594a4.632 4.632 0 0 0-1.535-1.084 4.63 4.63 0 0 0-1.9-.39c-.654 0-1.274.13-1.858.39-.585.26-1.095.62-1.535 1.084a5.537 5.537 0 0 0-1.044 1.594c-.26.6-.39 1.254-.39 1.964v8.908h-4.169v-8.908c0-.71-.13-1.364-.39-1.964-.26-.6-.604-1.13-1.044-1.594a4.632 4.632 0 0 0-1.535-1.084 4.528 4.528 0 0 0-1.859-.39c-.655 0-1.274.13-1.86.39-.584.26-1.094.62-1.534 1.084a5.537 5.537 0 0 0-1.044 1.594c-.26.6-.39 1.254-.39 1.964v8.908h-4.169v-17.327h5.353a8.87 8.87 0 0 1 3.64-.775c1.389 0 2.683.295 3.883.88a8.544 8.544 0 0 1 3.024 2.433 9.151 9.151 0 0 1 3.043-2.433c1.185-.585 2.474-.88 3.864-.88l.015-.005zm33.887 0c1.255 0 2.424.24 3.514.715a8.926 8.926 0 0 1 2.864 1.983 9.703 9.703 0 0 1 1.944 2.923 8.949 8.949 0 0 1 .715 3.578v8.908h-4.169v-8.908c0-.71-.13-1.364-.39-1.964-.26-.6-.604-1.13-1.044-1.594a4.632 4.632 0 0 0-1.534-1.084 4.63 4.63 0 0 0-1.9-.39c-.654 0-1.274.13-1.859.39s-1.095.62-1.534 1.084a5.537 5.537 0 0 0-1.045 1.594c-.26.6-.39 1.254-.39 1.964v8.908h-4.168v-8.908c0-.71-.13-1.364-.39-1.964-.26-.6-.605-1.13-1.045-1.594a4.632 4.632 0 0 0-1.534-1.084 4.528 4.528 0 0 0-1.86-.39c-.654 0-1.274.13-1.859.39s-1.094.62-1.534 1.084a5.537 5.537 0 0 0-1.045 1.594c-.26.6-.39 1.254-.39 1.964v8.908h-4.168v-17.327h5.353a8.87 8.87 0 0 1 3.638-.775c1.39 0 2.684.295 3.884.88a8.544 8.544 0 0 1 3.024 2.433 9.151 9.151 0 0 1 3.044-2.433c1.184-.585 2.474-.88 3.863-.88l.015-.005zm32.948.775L119.16 172h-4.658l6.213-12.506-8.587-17.327h4.658l6.253 12.626 6.298-12.626H134z" fill="#FFF" fill-rule="nonzero"/><path d="M50.646 19.79l16.839 33.037L83.819 19.79l2.629-5.317a48.198 48.198 0 0 0-19.308-4.007 48.244 48.244 0 0 0-19.223 3.968l2.73 5.356zm22.082 17.573c.26.115.555.06.725-.135l2.309-2.373c.1-.115.18-.24.24-.375.365-.824-.085-1.829-1.005-2.233-.92-.41-1.964-.07-2.33.759-.07.165-.114.34-.124.52l-.2 3.247c-.015.245.14.485.39.595l-.005-.005zm-10.771.52c-.26.114-.555.06-.725-.135l-2.309-2.374c-.1-.115-.18-.24-.24-.374-.365-.825.085-1.83 1.005-2.234.92-.41 1.964-.07 2.329.76.07.165.115.34.125.52l.2 3.247c.015.245-.14.485-.39.594l.005-.005zm5.368-8.77c.475.01.895-.264 1.03-.669l2.044-5.13c.08-.236.125-.486.13-.73.035-1.51-1.295-2.763-2.974-2.803-1.68-.04-3.07 1.149-3.109 2.653-.005.3.04.594.14.88l1.76 5.13c.13.39.524.66.979.67zM116.132 65.852c0-16.783-8.552-31.567-21.537-40.24l-.59 1.199-1.88 3.802-35.881 72.577-3.799 7.684-.37.75a48.285 48.285 0 0 0 15.675 2.598c26.72 0 48.382-21.654 48.382-48.365v-.005zM89.317 45.327c.325.345.82.445 1.204.255l5.073-2.184c.225-.11.43-.254.61-.424 1.09-1.04 1.04-2.868-.12-4.082-1.16-1.214-2.984-1.36-4.073-.32-.215.205-.395.45-.525.72l-2.384 4.87c-.18.37-.095.84.22 1.17l-.005-.005zm-2.52 14c.116.26.37.42.625.39l3.304-.19c.15-.015.295-.055.43-.115.83-.36 1.175-1.404.77-2.323-.405-.925-1.4-1.38-2.23-1.015-.164.07-.314.17-.444.3l-2.344 2.258c-.18.17-.225.455-.115.705l.005-.01zm.24 14.26c.115-.26.37-.42.625-.39l3.304.19c.15.015.295.055.43.115.83.36 1.174 1.404.77 2.323-.405.924-1.4 1.379-2.23 1.014a1.398 1.398 0 0 1-.444-.3l-2.345-2.258c-.18-.17-.224-.455-.114-.704l.005.01zm11.596-7.085c-.01.474.265.894.67 1.029l5.133 2.043c.235.08.485.125.73.13 1.51.035 2.764-1.294 2.804-2.972.04-1.68-1.15-3.068-2.654-3.108-.3-.005-.595.04-.88.14l-5.133 1.758c-.39.13-.66.53-.67.98zm-9.321 21.494c.325-.345.82-.445 1.204-.255l5.073 2.184c.225.11.43.254.61.424 1.09 1.04 1.04 2.868-.12 4.082-1.16 1.214-2.984 1.36-4.073.32a2.492 2.492 0 0 1-.525-.72l-2.384-4.87c-.18-.37-.095-.84.22-1.17l-.005.005zm-13.89-2.638c.26-.115.555-.06.725.135l2.309 2.373c.1.115.18.24.24.375.364.824-.085 1.829-1.005 2.233-.92.41-1.964.07-2.33-.76a1.552 1.552 0 0 1-.124-.519l-.2-3.247c-.015-.245.14-.485.39-.595l-.005.005zm-4.413 17.627l-2.04-5.131c-.135-.41-.555-.685-1.03-.67-.454.01-.849.28-.979.67l-1.76 5.131c-.1.285-.144.58-.14.88.036 1.508 1.43 2.693 3.11 2.653 1.679-.04 3.008-1.294 2.973-2.803a2.408 2.408 0 0 0-.13-.73h-.004zM61.287 65.382l-20.172 40.85C28.01 97.58 19.368 82.726 19.368 65.853c0-16.658 8.422-31.347 21.247-40.046l.375-.25.64 1.255.34.664 19.322 37.907h-.005zm-14.4 22.604c-.324-.345-.82-.445-1.204-.255l-5.073 2.184c-.225.11-.43.254-.61.424-1.09 1.04-1.04 2.868.12 4.082 1.16 1.214 2.984 1.36 4.074.32.214-.205.394-.45.524-.72l2.384-4.87c.18-.37.095-.84-.22-1.17l.006.005zm2.52-28.664c-.115.26-.37.42-.625.39l-3.304-.19a1.404 1.404 0 0 1-.43-.115c-.83-.36-1.174-1.404-.77-2.323.405-.925 1.4-1.38 2.23-1.015.165.07.315.17.444.3l2.345 2.258c.18.17.225.455.115.705l-.005-.01zm0 14.664c-.115-.26-.37-.42-.625-.39l-3.304.19c-.15.015-.295.055-.43.115-.83.36-1.174 1.404-.77 2.324.405.924 1.4 1.379 2.23 1.014.165-.07.315-.17.444-.3l2.345-2.258c.18-.17.225-.455.115-.705l-.005.01zM37.57 66.492c.01.474-.265.894-.67 1.029l-5.133 2.043c-.235.08-.485.125-.73.13-1.509.035-2.764-1.294-2.804-2.972-.04-1.68 1.15-3.068 2.654-3.108.3-.005.595.04.88.14l5.133 1.758c.39.13.66.53.67.98zm9.322-21.17c-.325.345-.82.445-1.205.255l-5.073-2.184a2.471 2.471 0 0 1-.61-.424c-1.09-1.04-1.04-2.868.12-4.082 1.16-1.214 2.984-1.36 4.074-.32.214.205.394.45.524.72l2.384 4.87c.18.37.095.84-.22 1.17l.006-.005z" fill="#FFF"/><path d="M87.058 21.494a48.198 48.198 0 0 0-19.308-4.007 48.244 48.244 0 0 0-19.223 3.967M47.572 13.76l-2.034-3.992C52.146 6.855 59.453 5.24 67.14 5.24a53.442 53.442 0 0 1 21.627 4.542l-1.96 3.967-.17.345-.01.02-.18.364a48.198 48.198 0 0 0-19.307-4.007 48.244 48.244 0 0 0-19.223 3.968l-.345-.675v-.005zM38.78 110.954c-14.824-9.533-24.645-26.17-24.645-45.102 0-18.691 9.571-35.15 24.086-44.742l2.394 4.691C27.795 34.5 19.368 49.19 19.368 65.847c0 16.873 8.647 31.727 21.747 40.38l-2.334 4.727zm2.205-85.403l-.31-.604-2.084-4.082-.375.245L40.61 25.8l.375-.25-.31-.604-2.084-4.082 2.084 4.082.31.604zm7.202-4.776l-2.034-3.992 2.034 3.992zM38.78 110.954c1.02.655 2.06 1.274 3.124 1.864M44.228 108.126a49.207 49.207 0 0 1-3.113-1.893"/><path d="M49.736 116.345l-2.279 4.742a58.72 58.72 0 0 0 20.288 3.592c32.498 0 58.843-26.335 58.843-58.822 0-20.895-10.901-39.246-27.33-49.684l-1.994 4.037-.335.68c14.704 9.558 24.43 26.126 24.43 44.962 0 29.599-24.005 53.596-53.614 53.596a53.476 53.476 0 0 1-18.009-3.103z" fill="#FFF"/><path d="M36.206 16.183l-.374.24C19.628 26.9 8.907 45.123 8.907 65.853c0 20.989 10.996 39.41 27.55 49.823m2.329-4.722C23.96 101.421 14.14 84.784 14.14 65.852c0-18.691 9.571-35.15 24.086-44.742l.375-.245M36.451 115.676c1.025.644 2.07 1.259 3.134 1.839m2.32-4.697a53.079 53.079 0 0 1-3.124-1.864"/><path d="M45.538 9.763c13.725-6.046 29.509-6.04 43.229.015l2.319-4.692A58.846 58.846 0 0 0 66.22.01c-6.527.1-13.04 1.28-19.248 3.537-1.18.43-2.344.9-3.493 1.404-.11.045-.215.095-.32.145l2.379 4.667zM38.975 110.565l-2.329 4.721C20.187 104.86 9.256 86.487 9.256 65.562c0-20.725 10.722-38.946 26.925-49.429l2.415 4.732c-14.51 9.593-24.111 26.006-24.111 44.697 0 18.867 9.751 35.45 24.49 45.003z" fill="#FFF"/><path d="M116.132 66.407c-.3 26.456-21.847 47.81-48.382 47.81a48.262 48.262 0 0 1-15.674-2.598l-1.97 3.977-.37.744a53.476 53.476 0 0 0 18.009 3.103c29.424 0 53.315-23.698 53.615-53.041v-.555c0-18.841-9.727-35.41-24.431-44.962l-2 4.047-.334.674c12.985 8.674 21.537 23.458 21.532 40.241 0 .185.005.37.005.555v.005z"/></g></svg>
