<?xml version="1.0" encoding="UTF-8"?>
<!DOCTYPE svg PUBLIC "-//W3C//DTD SVG 1.1//EN" "http://www.w3.org/Graphics/SVG/1.1/DTD/svg11.dtd">
<!-- Creator: CorelDRAW 2017 -->
<svg xmlns="http://www.w3.org/2000/svg" xml:space="preserve" width="846.667mm" height="508mm" version="1.1" style="shape-rendering:geometricPrecision; text-rendering:geometricPrecision; image-rendering:optimizeQuality; fill-rule:evenodd; clip-rule:evenodd"
viewBox="0 0 84667 50800"
 xmlns:xlink="http://www.w3.org/1999/xlink">
 <defs>
  <style type="text/css">
   <![CDATA[
    .str0 {stroke:black;stroke-width:16.93}
    .str1 {stroke:white;stroke-width:16.93}
    .fil1 {fill:none}
    .fil2 {fill:black}
    .fil4 {fill:aqua}
    .fil5 {fill:#45C00F}
    .fil0 {fill:#FF0025}
    .fil3 {fill:white}
    .fil6 {fill:black;fill-rule:nonzero}
   ]]>
  </style>
 </defs>
 <g id="Layer_x0020_1">
  <metadata id="CorelCorpID_0Corel-Layer"/>
  <path class="fil0" d="M11136 17198l3202 6284 3106 -6284 500 -1011c-1125,-490 -2366,-763 -3672,-763 -1299,0 -2535,269 -3655,755l519 1019z"/>
  <path class="fil0" d="M23588 25960c0,-3192 -1626,-6005 -4095,-7654l-113 228 -357 723 -6823 13805 -723 1462 -70 142c935,320 1937,494 2981,494 5081,0 9200,-4119 9200,-9200z"/>
  <path class="fil0" d="M13159 25871l-3835 7770c-2492,-1646 -4136,-4471 -4136,-7681 0,-3169 1602,-5963 4040,-7618l71 -48 122 239 64 126 3674 7211z"/>
  <path class="fil1" d="M18059 17523c-1125,-490 -2366,-763 -3672,-763 -1299,0 -2535,269 -3655,755"/>
  <path class="fil1" d="M9298 18295l-71 48c-2438,1655 -4040,4449 -4040,7618 0,3210 1644,6035 4136,7681"/>
  <path class="fil1" d="M9323 33641c192,127 390,247 592,360m1492 665c935,320 1937,494 2981,494 5081,0 9200,-4119 9200,-9200 0,-3192 -1626,-6005 -4095,-7654"/>
  <path class="fil2 str0" d="M8649 26083c2,90 -50,170 -128,196l-976 388c-45,15 -92,23 -139,25 -287,7 -525,-246 -533,-565 -8,-319 218,-584 505,-591 57,-1 113,8 167,26l976 335c74,25 126,100 128,186z"/>
  <path class="fil2 str0" d="M20261 26083c-2,90 50,170 128,196l976 388c45,15 92,23 139,25 287,7 525,-246 533,-565 8,-319 -218,-584 -505,-591 -57,-1 -113,8 -167,26l-976 335c-74,25 -126,100 -128,186z"/>
  <path class="fil2 str0" d="M18489 22056c62,65 156,85 229,48l964 -415c43,-21 82,-48 116,-81 208,-198 197,-545 -23,-777 -220,-231 -567,-258 -775,-61 -41,39 -75,85 -100,137l-453 927c-35,70 -18,160 41,222z"/>
  <path class="fil2 str0" d="M14424 31919c90,-2 170,50 196,128l388 976c15,45 23,92 25,139 7,287 -246,525 -565,533 -319,8 -584,-218 -591,-505 -1,-57 8,-113 26,-167l335 -976c25,-74 100,-126 186,-128z"/>
  <path class="fil2 str0" d="M10421 22056c-62,65 -156,85 -229,48l-964 -415c-43,-21 -82,-48 -116,-81 -208,-198 -197,-545 23,-777 220,-231 567,-258 775,-61 41,39 75,85 100,137l453 927c35,70 18,160 -41,222z"/>
  <path class="fil2 str0" d="M10421 30171c-62,-65 -156,-85 -229,-48l-964 415c-43,21 -82,48 -116,81 -208,198 -197,545 23,777 220,231 567,258 775,61 41,-39 75,-85 100,-137l453 -927c35,-70 18,-160 -41,-222z"/>
  <path class="fil2 str0" d="M18489 30171c62,-65 156,-85 229,-48l964 415c43,21 82,48 116,81 208,198 197,545 -23,777 -220,231 -567,258 -775,61 -41,-39 -75,-85 -100,-137l-453 -927c-35,-70 -18,-160 41,-222z"/>
  <path class="fil3 str1" d="M13062 29670c-49,-22 -106,-11 -138,26l-439 451c-19,21 -34,45 -46,71 -70,157 16,348 191,425 175,78 373,13 443,-144 14,-31 22,-64 24,-99l38 -617c3,-47 -27,-93 -74,-114z"/>
  <path class="fil3 str1" d="M15848 29670c49,-22 106,-11 138,26l439 451c19,21 34,45 46,71 70,157 -16,348 -191,425 -175,78 -373,13 -443,-144 -14,-31 -22,-64 -24,-99l-38 -617c-3,-47 27,-93 74,-114z"/>
  <path class="fil3 str1" d="M18056 27430c22,-50 70,-80 119,-74l629 36c28,3 56,11 82,22 158,69 223,267 146,442 -77,175 -267,262 -424,193 -31,-14 -60,-33 -84,-57l-445 -429c-34,-32 -43,-86 -22,-134z"/>
  <path class="fil3 str1" d="M10899 27508c-22,-50 -70,-80 -119,-74l-629 36c-28,3 -56,11 -82,22 -158,69 -223,267 -146,442 77,175 267,262 424,193 31,-14 60,-33 84,-57l445 -429c34,-32 43,-86 22,-134z"/>
  <path class="fil3 str1" d="M10899 24718c-22,50 -70,80 -119,74l-629 -36c-28,-3 -56,-11 -82,-22 -158,-69 -223,-267 -146,-442 77,-175 267,-262 424,-193 31,14 60,33 84,57l445 429c34,32 43,86 22,134z"/>
  <path class="fil3 str1" d="M18010 24718c22,50 70,80 119,74l629 -36c28,-3 56,-11 82,-22 158,-69 223,-267 146,-442 -77,-175 -267,-262 -424,-193 -31,14 -60,33 -84,57l-445 429c-34,32 -43,86 -22,134z"/>
  <path class="fil1" d="M10551 16051l-387 -760c1257,-554 2646,-861 4107,-861 1464,0 2855,309 4113,864l-373 754 -32 66 -2 4 -34 69c-1125,-490 -2366,-763 -3671,-763 -1299,0 -2535,269 -3655,755l-65 -128z"/>
  <path class="fil1" d="M8880 34540c-2819,-1814 -4687,-4978 -4687,-8580 0,-3556 1820,-6686 4580,-8510l455 893c-2438,1655 -4040,4449 -4040,7618 0,3210 1644,6035 4136,7681m-25 -15347l-58 -115 -396 -777 -71 47 455 893 71 -48 -58 -115 -396 -777 396 777 59 115zm1369 -908l-387 -760c0,0 0,0 0,0l387 760z"/>
  <path class="fil1" d="M10733 17515c1120,-485 2356,-755 3655,-755 1305,0 2547,272 3671,763"/>
  <path class="fil1" d="M8844 17403l-71 47c-2759,1824 -4580,4955 -4580,8510 0,3601 1868,6766 4687,8580"/>
  <path class="fil1" d="M8880 34540c194,125 392,243 594,354"/>
  <path class="fil4" d="M10281 16627c0,0 0,0 0,0z"/>
  <path class="fil1" d="M9323 33641c-2492,-1646 -4136,-4471 -4136,-7681 0,-3169 1602,-5963 4040,-7618l71 -48"/>
  <path class="fil1" d="M9915 34001c-202,-113 -400,-233 -592,-360"/>
  <path class="fil5" d="M10963 35565l-433 902c1203,442 2502,683 3858,683 6180,0 11189,-5010 11189,-11189 0,-3975 -2073,-7466 -5197,-9451l-380 768 -64 129c2796,1818 4646,4969 4646,8553 0,5631 -4564,10195 -10195,10195 -1202,0 -2354,-208 -3425,-590z"/>
  <path class="fil1" d="M10281 16627c0,0 0,0 0,0z"/>
  <path class="fil1" d="M8390 16512l-72 46c-3081,1993 -5120,5459 -5120,9402 0,3993 2091,7497 5238,9477m443 -898c-2819,-1814 -4687,-4978 -4687,-8580 0,-3556 1820,-6686 4580,-8510l71 -47"/>
  <path class="fil1" d="M8437 35438c195,123 394,239 596,350m441 -893c-202,-112 -400,-230 -594,-354"/>
  <path class="fil1" d="M10530 36467c1203,442 2502,683 3858,683 6180,0 11189,-5010 11189,-11189 0,-3975 -2073,-7466 -5197,-9451m-444 898c2796,1818 4646,4969 4646,8553 0,5631 -4564,10195 -10195,10195 -1202,0 -2354,-208 -3425,-590"/>
  <path class="fil2 str0" d="M14308 18972c90,2 170,-50 196,-128l388 -976c15,-45 23,-92 25,-139 7,-287 -246,-525 -565,-533 -319,-8 -584,218 -591,505 -1,57 8,113 26,167l335 976c25,74 100,126 186,128z"/>
  <path class="fil3 str1" d="M13287 20639c-49,22 -106,11 -138,-26l-439 -451c-19,-21 -34,-45 -46,-71 -70,-157 16,-348 191,-425 175,-78 373,-13 443,144 14,31 22,64 24,99l38 617c3,47 -27,93 -74,114z"/>
  <path class="fil3 str1" d="M15335 20541c49,22 106,11 138,-26l439 -451c19,-21 34,-45 46,-71 70,-157 -16,-348 -191,-425 -175,-78 -373,-13 -443,144 -14,31 -22,64 -24,99l-38 617c-3,47 27,93 74,114z"/>
  <path class="fil5" d="M10164 15291c2610,-1150 5611,-1149 8220,3l441 -893c-1497,-668 -3115,-990 -4728,-965 -1241,19 -2480,243 -3660,673 -224,82 -446,171 -665,267 -20,9 -41,18 -61,27l452 888z"/>
  <path class="fil5" d="M8916 34465l-443 898c-3130,-1984 -5208,-5478 -5208,-9458 0,-3943 2039,-7409 5120,-9402l459 900c-2759,1824 -4584,4947 -4584,8502 0,3589 1854,6744 4657,8560z"/>
  <path class="fil1" d="M23588 26065c-57,5033 -4154,9095 -9200,9095 -1043,0 -2046,-174 -2981,-494l-374 757 -70 141c1070,382 2223,590 3425,590 5595,0 10138,-4508 10195,-10090 0,-35 0,-70 0,-105 0,-3584 -1849,-6735 -4646,-8553l-381 770 -64 129c2469,1650 4095,4462 4094,7654 0,35 1,70 1,105z"/>
  <path class="fil6" d="M36224 19729l-6272 12613 -1970 0 2626 -5287 -3628 -7326 1970 0 2643 5339 2661 -5339 1970 0zm8622 0l0 3870 0 121 0 3335 -639 0 -740 -553c-346,276 -726,492 -1146,648 -420,156 -870,233 -1353,233 -530,0 -1028,-98 -1500,-294 -469,-196 -884,-467 -1241,-812 -357,-346 -634,-749 -835,-1209 -202,-461 -302,-950 -302,-1469l0 -3870 1797 0 0 3882c0,276 55,538 164,780 109,242 259,455 449,639 190,187 412,331 665,435 253,104 524,156 812,156 288,0 562,-52 821,-156 259,-104 484,-248 674,-435 190,-184 340,-397 449,-639 109,-242 164,-504 164,-780l0 -3882 1762 0zm10522 -328c530,0 1025,101 1486,302 461,202 864,481 1209,838 346,357 619,769 821,1235 202,467 302,970 302,1512l0 3767 -1762 0 0 -3767c0,-299 -55,-576 -164,-829 -109,-253 -256,-478 -441,-674 -184,-196 -400,-348 -648,-458 -248,-109 -515,-164 -803,-164 -276,0 -539,55 -786,164 -248,109 -464,262 -648,458 -184,196 -331,420 -441,674 -109,253 -164,530 -164,829l0 0 0 3767 -1762 0 0 -3767c0,-299 -55,-576 -164,-829 -109,-253 -256,-478 -441,-674 -184,-196 -400,-348 -648,-458 -248,-109 -510,-164 -786,-164 -276,0 -539,55 -786,164 -248,109 -464,262 -648,458 -184,196 -331,420 -441,674 -109,253 -164,530 -164,829l0 3767 -1762 0 0 -7326 2263 0c495,-219 1008,-328 1538,-328 587,0 1135,124 1641,371 507,248 933,590 1279,1028 357,-438 786,-780 1287,-1028 501,-248 1045,-371 1633,-371zm14323 0c530,0 1025,101 1486,302 461,202 864,481 1209,838 346,357 619,769 821,1235 202,467 302,970 302,1512l0 3767 -1762 0 0 -3767c0,-299 -55,-576 -164,-829 -109,-253 -256,-478 -441,-674 -184,-196 -400,-348 -648,-458 -248,-109 -515,-164 -803,-164 -276,0 -539,55 -786,164 -248,109 -464,262 -648,458 -184,196 -331,420 -441,674 -109,253 -164,530 -164,829l0 0 0 3767 -1762 0 0 -3767c0,-299 -55,-576 -164,-829 -109,-253 -256,-478 -441,-674 -184,-196 -400,-348 -648,-458 -248,-109 -510,-164 -786,-164 -276,0 -539,55 -786,164 -248,109 -464,262 -648,458 -184,196 -331,420 -441,674 -109,253 -164,530 -164,829l0 3767 -1762 0 0 -7326 2263 0c495,-219 1008,-328 1538,-328 587,0 1135,124 1641,371 507,248 933,590 1279,1028 357,-438 786,-780 1287,-1028 501,-248 1045,-371 1633,-371zm13926 328l-6272 12613 -1970 0 2626 -5287 -3628 -7326 1970 0 2643 5339 2661 -5339 1970 0z"/>
 </g>
</svg>
