<?xml version="1.0" encoding="UTF-8"?>
<!DOCTYPE svg PUBLIC "-//W3C//DTD SVG 1.1//EN" "http://www.w3.org/Graphics/SVG/1.1/DTD/svg11.dtd">
<!-- Creator: CorelDRAW 2017 -->
<svg xmlns="http://www.w3.org/2000/svg" xml:space="preserve" width="297mm" height="420mm" version="1.1" style="shape-rendering:geometricPrecision; text-rendering:geometricPrecision; image-rendering:optimizeQuality; fill-rule:evenodd; clip-rule:evenodd"
viewBox="0 0 29700 42000"
 xmlns:xlink="http://www.w3.org/1999/xlink">
 <defs>
  <style type="text/css">
   <![CDATA[
    .fil2 {fill:none}
    .fil3 {fill:black}
    .fil1 {fill:white}
    .fil0 {fill:white;fill-rule:nonzero}
   ]]>
  </style>
 </defs>
 <g id="Layer_x0020_1">
  <metadata id="CorelCorpID_0Corel-Layer"/>
  <path class="fil0" d="M5766 33122l-2969 5971 -932 0 1243 -2503 -1718 -3468 932 0 1251 2527 1260 -2527 932 0zm4081 0l0 1832 0 57 0 1579 -303 0 -350 -262c-164,131 -344,233 -543,307 -199,74 -412,110 -641,110 -251,0 -487,-46 -710,-139 -222,-93 -419,-221 -588,-384 -169,-164 -300,-354 -395,-573 -95,-218 -143,-450 -143,-695l0 -1832 851 0 0 1838c0,131 26,255 78,369 52,114 123,215 213,303 90,89 195,157 315,206 120,49 248,74 384,74 136,0 266,-25 389,-74 123,-49 229,-117 319,-206 90,-87 161,-188 213,-303 52,-115 78,-239 78,-369l0 -1838 834 0zm4981 -155c251,0 485,48 703,143 218,95 409,228 573,397 164,169 293,364 389,585 95,221 143,459 143,716l0 1783 -834 0 0 -1783c0,-142 -26,-273 -78,-393 -52,-120 -121,-226 -209,-319 -87,-93 -189,-165 -307,-217 -117,-52 -244,-78 -380,-78 -131,0 -255,26 -372,78 -117,52 -219,124 -307,217 -87,93 -157,199 -209,319 -52,120 -78,251 -78,393l0 0 0 1783 -834 0 0 -1783c0,-142 -26,-273 -78,-393 -52,-120 -121,-226 -209,-319 -87,-93 -189,-165 -307,-217 -117,-52 -241,-78 -372,-78 -131,0 -255,26 -372,78 -117,52 -219,124 -307,217 -87,93 -157,199 -209,319 -52,120 -78,251 -78,393l0 1783 -834 0 0 -3468 1071 0c234,-104 477,-155 728,-155 278,0 537,59 777,176 240,117 442,279 605,487 169,-207 372,-369 609,-487 237,-117 495,-176 773,-176zm6780 0c251,0 485,48 703,143 218,95 409,228 573,397 164,169 293,364 389,585 95,221 143,459 143,716l0 1783 -834 0 0 -1783c0,-142 -26,-273 -78,-393 -52,-120 -121,-226 -209,-319 -87,-93 -189,-165 -307,-217 -117,-52 -244,-78 -380,-78 -131,0 -255,26 -372,78 -117,52 -219,124 -307,217 -87,93 -157,199 -209,319 -52,120 -78,251 -78,393l0 0 0 1783 -834 0 0 -1783c0,-142 -26,-273 -78,-393 -52,-120 -121,-226 -209,-319 -87,-93 -189,-165 -307,-217 -117,-52 -241,-78 -372,-78 -131,0 -255,26 -372,78 -117,52 -219,124 -307,217 -87,93 -157,199 -209,319 -52,120 -78,251 -78,393l0 1783 -834 0 0 -3468 1071 0c234,-104 477,-155 728,-155 278,0 537,59 777,176 240,117 442,279 605,487 169,-207 372,-369 609,-487 237,-117 495,-176 773,-176zm6592 155l-2969 5971 -932 0 1243 -2503 -1718 -3468 932 0 1251 2527 1260 -2527 932 0z"/>
  <path class="fil1" d="M11523 8629l3369 6612 3268 -6612 526 -1064c-1183,-516 -2490,-802 -3863,-802 -1366,0 -2667,283 -3846,794l546 1072zm4418 3517c52,23 111,12 145,-27l462 -475c20,-23 36,-48 48,-75 73,-165 -17,-366 -201,-447 -184,-82 -393,-14 -466,152 -14,33 -23,68 -25,104l-40 650c-3,49 28,97 78,119zm-2155 104c-52,23 -111,12 -145,-27l-462 -475c-20,-23 -36,-48 -48,-75 -73,-165 17,-366 201,-447 184,-82 393,-14 466,152 14,33 23,68 25,104l40 650c3,49 -28,97 -78,119zm1074 -1755c95,2 179,-53 206,-134l409 -1027c16,-47 25,-97 26,-146 7,-302 -259,-553 -595,-561 -336,-8 -614,230 -622,531 -1,60 8,119 28,176l352 1027c26,78 105,132 196,134z"/>
  <path class="fil1" d="M24625 17848c0,-3359 -1711,-6318 -4309,-8054l-118 240 -376 761 -7179 14526 -760 1538 -74 150c984,337 2038,520 3136,520 5346,0 9680,-4334 9680,-9680zm-5365 -4108c65,69 164,89 241,51l1015 -437c45,-22 86,-51 122,-85 218,-208 208,-574 -24,-817 -232,-243 -597,-272 -815,-64 -43,41 -79,90 -105,144l-477 975c-36,74 -19,168 44,234zm-504 2802c23,52 74,84 125,78l661 -38c30,-3 59,-11 86,-23 166,-72 235,-281 154,-465 -81,-185 -280,-276 -446,-203 -33,14 -63,34 -89,60l-469 452c-36,34 -45,91 -23,141zm48 2854c23,-52 74,-84 125,-78l661 38c30,3 59,11 86,23 166,72 235,281 154,465 -81,185 -280,276 -446,203 -33,-14 -63,-34 -89,-60l-469 -452c-36,-34 -45,-91 -23,-141zm2320 -1418c-2,95 53,179 134,206l1027 409c47,16 97,25 146,26 302,7 553,-259 561,-595 8,-336 -230,-614 -531,-622 -60,-1 -119,8 -176,28l-1027 352c-78,26 -132,106 -134,196zm-1865 4302c65,-69 164,-89 241,-51l1015 437c45,22 86,51 122,85 218,208 208,574 -24,817 -232,243 -597,272 -815,64 -43,-41 -79,-90 -105,-144l-477 -975c-36,-74 -19,-168 44,-234zm-2779 -528c52,-23 111,-12 145,27l462 475c20,23 36,48 48,75 73,165 -17,366 -201,447 -184,82 -393,14 -466,-152 -14,-33 -23,-68 -25,-104l-40 -650c-3,-49 28,-97 78,-119zm-883 3528l-408 -1027c-27,-82 -111,-137 -206,-134 -91,2 -170,56 -196,134l-352 1027c-20,57 -29,116 -28,176 7,302 286,539 622,531 336,-8 602,-259 595,-561 -1,-50 -10,-99 -26,-146z"/>
  <path class="fil1" d="M13652 17754l-4036 8176c-2622,-1732 -4351,-4705 -4351,-8082 0,-3334 1685,-6274 4251,-8015l75 -50 128 251 68 133 3866 7587zm-2881 4524c-65,-69 -164,-89 -241,-51l-1015 437c-45,22 -86,51 -122,85 -218,208 -208,574 24,817 232,243 597,272 815,64 43,-41 79,-90 105,-144l477 -975c36,-74 19,-168 -44,-234zm504 -5737c-23,52 -74,84 -125,78l-661 -38c-30,-3 -59,-11 -86,-23 -166,-72 -235,-281 -154,-465 81,-185 280,-276 446,-203 33,14 63,34 89,60l469 452c36,34 45,91 23,141zm0 2935c-23,-52 -74,-84 -125,-78l-661 38c-30,3 -59,11 -86,23 -166,72 -235,281 -154,465 81,185 280,276 446,203 33,-14 63,-34 89,-60l469 -452c36,-34 45,-91 23,-141zm-2368 -1500c2,95 -53,179 -134,206l-1027 409c-47,16 -97,25 -146,26 -302,7 -553,-259 -561,-595 -8,-336 230,-614 531,-622 60,-1 119,8 176,28l1027 352c78,26 132,106 134,196zm1865 -4237c-65,69 -164,89 -241,51l-1015 -437c-45,-22 -86,-51 -122,-85 -218,-208 -208,-574 24,-817 232,-243 597,-272 815,-64 43,41 79,90 105,144l477 975c36,74 19,168 -44,234z"/>
  <path class="fil2" d="M18808 8970c-1183,-516 -2490,-802 -3863,-802 -1366,0 -2667,283 -3846,794"/>
  <path class="fil2" d="M10908 7422l-407 -799c1322,-583 2784,-906 4322,-906 1540,0 3004,325 4327,909l-392 794 -34 69 -2 4 -36 73c-1183,-516 -2490,-802 -3863,-802 -1366,0 -2667,283 -3846,794l-69 -135z"/>
  <path class="fil2" d="M9149 26875c-2966,-1908 -4931,-5238 -4931,-9027 0,-3741 1915,-7035 4819,-8955l479 939c-2565,1741 -4251,4681 -4251,8015 0,3377 1730,6350 4351,8082m-26 -16147l-62 -121 -417 -817 -75 49 479 939 75 -50 -62 -121 -417 -817 417 817 62 121zm1441 -956l-407 -799c0,0 0,0 0,0l407 799z"/>
  <path class="fil2" d="M9149 26875c204,131 412,255 625,373"/>
  <path class="fil3" d="M10623 8027c0,0 0,0 0,0z"/>
  <path class="fil2" d="M10239 26309c-213,-119 -420,-245 -623,-379"/>
  <path class="fil1" d="M11341 27954l-456 949c1265,465 2633,719 4059,719 6502,0 11773,-5271 11773,-11773 0,-4182 -2181,-7855 -5468,-9944l-399 808 -67 136c2942,1913 4888,5229 4888,8999 0,5924 -4803,10727 -10727,10727 -1264,0 -2477,-219 -3603,-621z"/>
  <path class="fil3" d="M10623 8027c0,0 0,0 0,0z"/>
  <path class="fil2" d="M8634 7907l-75 48c-3242,2097 -5387,5744 -5387,9893 0,4201 2200,7888 5512,9972m466 -945c-2966,-1908 -4931,-5238 -4931,-9027 0,-3741 1915,-7035 4819,-8955l75 -49"/>
  <path class="fil2" d="M8683 27820c205,129 414,252 627,368m464 -940c-213,-117 -421,-242 -625,-373"/>
  <path class="fil1" d="M10501 6622c2746,-1210 5904,-1209 8649,3l464 -939c-1575,-703 -3277,-1042 -4975,-1016 -1306,20 -2609,256 -3851,708 -236,86 -469,180 -699,281 -22,9 -43,19 -64,29l476 934z"/>
  <path class="fil1" d="M9188 26797l-466 945c-3293,-2087 -5480,-5764 -5480,-9952 0,-4148 2145,-7795 5387,-9893l483 947c-2903,1920 -4824,5205 -4824,8946 0,3776 1951,7095 4900,9007z"/>
  <path class="fil2" d="M24625 17959c-60,5295 -4371,9569 -9680,9569 -1098,0 -2153,-183 -3136,-520l-394 796 -74 149c1126,402 2339,621 3603,621 5887,0 10667,-4743 10727,-10616 0,-37 0,-74 0,-111 0,-3771 -1946,-7087 -4888,-8999l-400 810 -67 135c2598,1736 4309,4695 4308,8054 0,37 1,74 1,111z"/>
 </g>
</svg>
