<svg class="article-icon" width="155px" height="135px" viewBox="0 0 155 135" version="1.1" xmlns="http://www.w3.org/2000/svg" xmlns:xlink="http://www.w3.org/1999/xlink">
    <defs></defs>
    <g id="Page-1" stroke="none" stroke-width="1" fill="none" fill-rule="evenodd">
        <g id="Artboard" fill="#000000" fill-rule="nonzero">
            <g id="5V8VSRBvue">
                <g id="Group" transform="translate(77.250000, 67.450000) scale(-1, 1) rotate(-180.000000) translate(-77.250000, -67.450000) translate(0.250000, 0.450000)">
                    <path d="M100.4,132.75 C100.15,132.5 96.3,132.3 91.85,132.25 C85.45,132.2 83.5,131.85 82.75,130.6 C82.15,129.55 81.8,129.4 81.8,130.25 C81.75,131.2 81.05,131.15 78.8,130 C76.9,129 73.1,128.45 68.05,128.45 C60.2,128.45 55.2,127.5 48.75,124.8 C41.4,121.7 31,116.4 29,114.7 C27.85,113.75 25.65,112.05 24.1,110.95 C19.95,107.95 13.4696045,99.834088 12.75,98.8 C12.0303955,97.765912 11.7210587,97.5521456 10.75,96.45 C10.1026275,95.7152363 9.41732967,94.778791 8.69410649,93.6406642 L7.84723887,92.3810476 C7.08241296,91.5936825 6.48333333,90.7 6.05,89.7 C3.85,84.5 2.5076649,80.8929948 2.0229947,78.8789843 C1.67433157,77.9590482 1.5,77.2160534 1.5,76.65 C1.5,75.8009198 -0.334204851,60.0805537 0.186488021,56.2733038 C0.533616603,53.7351373 1.1457855,50.9361696 2.0229947,47.8764009 C6.47040256,38.9207583 10.7627377,32.561958 14.9,28.8 C34.3578776,11.1072088 46.5,3.85 66.75,1.7 C83,-0.05 102.448239,1.78714735 105.435061,3.22905317 C107.426275,4.19032372 108.714588,4.79730599 109.3,5.05 L111.152077,5.93010789 L116.650132,8.78381072 C121.47249,12.0209828 124.117003,13.7395688 124.58367,13.9395688 C125.050336,14.1395688 125.75578,14.8097126 126.7,15.95 C128.766667,16.3833333 131.583333,18.5333333 135.15,22.4 C137.4,24.85 141.275075,28.8007366 142.55,30.2 C143.39995,31.1328422 144.070827,32.1361995 144.56263,33.2100719 C145.209734,34.5169314 145.807765,35.6755582 146.356725,36.6859522 C146.905685,37.6963462 147.436776,38.7471296 147.95,39.8383025 L148.95,42.0776428 C149.616667,45.1654707 150.216667,47.5395898 150.75,49.2 C151.55,51.6906153 151.283354,51.5484727 151.55,52.45 C151.816646,53.3515273 152.184138,53.2678545 152.234138,54.2178545 C152.284138,55.1678545 152.95,59.1 153.4,62.95 C154.8,75.1 152.45,94.45 149.55,94.45 C149.1,94.45 148.85,94.8 148.95,95.2 C149.5,97.2 141.5,110.35 136.75,115.35 C128.6,123.95 103.55,135.9 100.4,132.75 Z M109.25,127.4 C111.45,126.8 114.15,125.95 115.25,125.45 C116.35,125 119.3,123.7 121.75,122.65 C138.15,115.7 150.55,92.35 149.45,70.45 C148.7,56.25 141.45,33.45 137.7,33.45 C137.25,33.45 135.6,31.65 133.95,29.4 C130.1,24.15 119.1,15.7 110.25,11.2 C87,-0.6 51.25,2.75 30.8,18.7 C7.4,36.95 1.4,49.55 5.1,72.6 C7.3,86.05 22.7,107.35 35.05,113.95 C37.1,115 38.75,116.25 38.75,116.7 C38.75,117.1 39.35,117.45 40.05,117.45 C40.8,117.45 43.6,118.5 46.3,119.85 C54.15,123.6 59.9,125.25 65.8,125.45 C73.05,125.7 73.35,125.65 72.05,124.35 C71.45,123.75 71.2,122.35 71.5,121.25 C72.05,119.2 72.05,119.2 73.65,121.15 C76.95,125.1 83.55,127.1 87,125.1 C90.8,122.95 92.05,123.95 88.75,126.5 L86.25,128.4 L95.75,128.4 C101,128.45 107.05,127.95 109.25,127.4 Z" id="Shape"></path>
                    <path d="M75.65,113.35 C75.65,112.05 75.45,102.65 75.25,92.45 C75.05,82.3 74.6,70.55 74.3,66.35 C73.5,56.45 73.95,56.05 84.95,56.9 C89.5,57.3 99.1,57.7 106.25,57.9 C122.35,58.3 126,59.45 120.15,62.15 C118.5,62.9 116.75,63 115.3,62.45 C114.05,62 109,61.6 104.15,61.55 C99.25,61.55 91.25,61.25 86.4,60.85 L77.5,60.15 L78.25,64.4 C79.95,74.45 79.35,112.5 77.5,114.2 C75.9,115.65 75.75,115.6 75.65,113.35 Z" id="Shape"></path>
                </g>
            </g>
        </g>
    </g>
</svg>
